**ABCDEFGHIJKLMNOPQRSTUVWXYZabcdefghijklmnopqrstuvwxyz**************************
**PARASOLID !"#$%&'()*+,-./:;<=>?@[\]^_`{|}~0123456789**************************
**PART1;
MC=AMD64;
MC_MODEL=Intel64 Family 6 Model 94 Stepping 3, GenuineIntel;
MC_ID=unknown;
OS=Windows_NT;
OS_RELEASE=unknown;
FRU=Parasolid Version 28.0, build 204, 11- 9-2015;
APPL=SOLIDWORKS 2016-2016040;
SITE=;
USER=unknown;
FORMAT=text;
GUISE=transmit;
KEY=Ball.1;
FILE=Ball.1.x_t;
DATE=Sun Jan 15 18:03:52 2017;
**PART2;
SCH=SCH_2800204_28002;
USFLD_SIZE=0;
**PART3;
**END_OF_HEADER*****************************************************************
T51 : TRANSMIT FILE created by modeller version 280020423 SCH_2800204_28002_1300
6200 0 12 30 CCCCCCCCCCCCCDI5 owner1040 0 CCCCCCCCCA13 boundary_mesh1006 0 A16 i
ndex_map_offset0 0 1 dA9 index_map82 0 A17 node_id_index_map82 0 A20 schema_embe
dding_map82 0 A5 child12 0 A14 lowest_node_id0 0 1 dZ1 1769 0 2 0 0 0 0 1e3 1e-8
 0 3 0 1 0 1 1 4 5 6 7 8 9 10 0 0 0 0 0 0 0 70 11 CI9 list_type0 0 1 uI10 notran
smit0 0 1 lCCCDCCDI12 finger_index0 0 1 dI12 finger_block1012 0 CZ2 0 4 T1 0 0 2
 20 1 11 11 13 255 4 59 0 1 0 12 0 0 13 0 54 255 5 191 0 1 14 0 15 -.03263518223
33069 .0294 0 0 0 1 .0326351822333069 .009 1 0 0 38 255 6 194 0 1 16 0 17 -14 5
 18 19 19 29 255 7 92 0 10 0 0 0 .0294 0 19 8 CCCCCCCA5 owner12 0 Z8 85 0 1 13 0
 20 V0 16 255 9 170 0 ?21 0 22 16 0 0 1 18 255 10 67 0 23 0 0 7 ?1 17 255 23 0 2
4 23 23 10 0 0 0 0 ?15 255 24 83 0 23 25 0 14 255 25 81 26 ?27 28 29 4 30 -0 0 2
7 28 20 81 255 1 26 1764 31 25 32 0 0 33 34 14 27 184 33 ?0 25 35 4 36 -0 0 0 25
 20 14 28 123 37 ?25 38 39 4 40 +0 0 25 38 20 15 29 102 0 41 25 24 50 255 30 88
 0 25 42 43 0 +0 .0294 0 0 -1 0 0 0 -1 13 20 86 0 0 0 0 0 0 8 12 14 12 54 44 ?45
 0 46 4 43 +0 0 45 0 20 81 1 44 1767 31 12 47 0 37 48 49 14 45 115 48 ?38 12 50
 4 51 +0 0 38 12 20 15 46 164 0 52 12 0 53 255 43 34 0 12 30 53 54 +0 .0147 0 .0
147 0 -1 0 -1 0 0 59 255 53 167 0 1 43 55 56 +1 36 141 255 54 36 57 57 43 56 255
 36 193 0 27 55 14 58 +R43 42 6 .005 -.005 1 1 0 0 0 0 141 57 59 54 54 43 38 59
 166 0 22 60 16 0 +43 53 61 62 62 16 22 163 0 ?52 9 63 59 0 0 1 31 255 60 137 0
 63 64 59 0 +.011657691453875 .0544 0 .766044443118979 .642787609686538 0 0 0 1
 .004 38 16 173 0 9 59 6 0 +42 55 65 66 66 40 255 21 61 0 1 21 .0003824592211122
27 .3390482883787195 ??-.00011241106964018 .0277773658928067 -.00671266452737495
 .00180732829497638 .02776321132793085 -.00649431091309897 .00387490698085551 .0
277455383352 -.00555778961769373 .00551494932982875 .02772929374373175 -.0039890
8992490439 .0065376019359132 .02771795417480995 -.00197043904500793 .00682958302
437481 .027714522821261 .000262662231865599 .0063662141599957 .02771992669613535
 .002458216039393695 .00520322229185605 .0277325549341108 .00437824047659748 .00
3465419329729855 .02774926684799585 .00581356204051619 .00134172089094148 .02776
682531297335 .00659908033676285 -806597523837558e-19 .0277771470184844 .00671354
748708083 -.002303363696588935 .0277913951707587 .00627693302212724 -.0042561713
56185465 .02780234057779245 .00512871102425547 -.00571485080760776 .027809713176
4238 .00340086763616066 -.00651586137264022 .02781350434150515 .0012921124014037
2 -.00657261858798069 .0278137665016575 -.000959068838476256 -.00588136851695351
 .02781051562227815 -.003100626466665795 -.00452019873427916 .02780372258229355
 -.00489390006936301 -.002640164546548505 .02779337935766865 -.00613864383747135
 -.000449529496461474 .0277796606236738 -.00669405715551698 -.000112411069640183
2 .02777736589280675 -.00671266452737499 41 3 CI8 term_use0 0 1 cCZ1 62 H?-.0001
124110696401832 .02777736589280675 -.00671266452737499 54 42 133 0 38 51 30 67 -
.0326351822333069 .0294 0 0 0 1 .0326351822333069 .004 1 0 0 59 55 174 0 1 53 36
 68 +0 36 40 21 65 0 1 21 .000233676227890258 .349116021047602 ??0 .032212466998
91915 -.003998170557499215 -.0002024500389574135 .03219448638114835 -.0039870877
0865259 -.001515959796300925 .03208786095503455 -.003656570737460805 -.002648622
62672981 .03200792546127885 -.002909584793872255 -.00345772628835473 .0319565091
863889 -.00184678280856587 -.00387131060245441 .0319318420139754 -.0005712367684
95306 -.003837356376033835 .03193382840669175 .000769602851327386 -.003358078500
05801 .0319626098185048 .002025611260237795 -.00248484447837727 .032018879753355
75 .0030547424694734 -.001314721292409872 .03210315289896485 .00373864189073036
 1907089902234565e-20 .03221418407374905 .00399869646244875 .000874029703410217
 .03229556734278355 .00393051799347628 .00215331784844683 .0324358679384891 .003
46265070893935 .00320348632221852 .03257160860433245 .00260775018560757 .0039085
52003553045 .03267562724018975 .0014641528639775 .004190093471875935 .0327205235
996732 .000156445834247991 .004012641553240685 .03269198845817785 -.001173625069
891346 .00339227014881286 .03259835093253 -.002375965881197775 .0024004631944768
8 .0324659647964912 -.00331030855536104 .00115419089128744 .0323242527211892 -.0
03868115645897195 561818776902544e-33 .03221246699891915 -.003998170557499215 41
 1 66 H?561818776902544e-33 .03221246699891915 -.003998170557499215 141 68 16 68
 68 55 14 38 119 69 ?28 45 70 4 42 -0 0 28 45 20 54 51 134 0 45 40 42 0 -.032635
1822333069 .0294 0 0 0 1 .0326351822333069 .00155 1 0 0 141 67 36 71 71 42 141 7
1 16 67 67 42 50 40 135 0 28 0 51 0 +.011657691453875 .0544 0 .766044443118979 .
642787609686538 0 0 0 1 81 1 69 1769 31 38 72 0 48 0 73 15 70 171 0 21 38 74 17
 21 0 70 21 21 0 75 9 0 0 +15 74 121 0 76 38 0 17 76 0 74 76 76 0 77 63 0 0 -17
 77 0 78 77 77 0 76 63 0 0 +16 63 111 0 ?77 22 79 60 0 0 1 16 79 108 0 ?80 63 81
 64 0 0 1 17 80 0 50 80 80 0 82 79 0 0 +16 81 112 0 ?41 79 0 83 0 0 1 31 64 138
 0 79 83 60 0 +.011657691453875 .0544 0 .766044443118979 .642787609686538 0 0 0
 1 .00155 31 83 140 0 81 0 64 0 +0 .0294 0 0 1 0 0 0 1 .00155 17 41 0 29 41 41 0
 84 81 0 0 +17 84 0 85 84 84 0 41 81 0 0 -15 85 118 0 84 45 0 15 50 117 0 80 45
 85 17 82 0 39 82 82 0 80 79 0 0 -15 39 125 0 82 28 78 15 78 126 0 77 28 0 17 75
 0 35 75 75 0 21 9 0 0 -15 35 185 0 75 27 86 15 86 186 0 87 27 0 17 87 0 86 87 8
7 0 52 22 0 0 -17 52 0 46 52 52 0 87 22 0 0 +80 255 1 31 88 89 9000 1 1 1 1 1 1
 1 1 0 FFFFTFTFFFFFFF1 81 1 72 1746 90 38 0 69 91 92 93 81 1 48 1768 31 45 91 0
 44 69 94 82 255 1 73 -455999352 81 1 91 1745 90 45 0 48 47 72 95 82 1 94 -45613
0425 80 1 90 0 96 8001 0 0 0 0 3 5 0 0 0 FFFFTFTFFFFFFF2 81 1 47 1744 90 12 0 44
 0 91 97 83 255 3 95 .792156862745098 .819607843137255 .933333333333333 83 3 97
 .792156862745098 .819607843137255 .933333333333333 79 255 15 96 SDL/TYSA_COLOUR
81 1 92 1747 90 28 0 37 72 32 98 83 3 93 .792156862745098 .819607843137255 .9333
33333333333 81 1 37 1766 31 28 92 0 33 44 99 81 1 32 1748 90 25 0 26 92 100 101
 83 3 98 .792156862745098 .819607843137255 .933333333333333 81 1 100 1749 90 27
 0 33 32 0 102 83 3 101 .792156862745098 .819607843137255 .933333333333333 81 1
 33 1765 31 27 100 0 26 37 103 83 3 102 .792156862745098 .819607843137255 .93333
3333333333 82 1 103 -447217528 82 1 99 -454360953 79 14 89 SWEntUnchanged53 14 1
92 0 1 36 5 104 +0 .0147 0 .0197 0 -1 0 -1 0 0 141 58 53 105 105 36 141 105 55 5
8 58 36 141 104 6 104 104 14 141 56 59 56 56 53 82 1 49 -458096504 82 1 34 -4594
07225 19 13 16 0 1 0 8 4 S0 141 17 36 17 17 6 40 20 18 0 1 20 .00051254739155856
5 .3390482883787195 ??-.000602430685734085 .032228524781386 -.00897094734446833
 .00242206581027447 .03220648048709105 -.00870326020326869 .00519290255257507 .0
3218279627234285 -.00744819424956235 .00739078243521268 .03216102630962695 -.005
345923232695 .00876127606377484 .0321458297444732 -.00264065640725553 .009152570
44763156 .03214123126386675 .0003520031270579795 .00853159312598063 .03214847319
14195 .003294343943949375 .00697302579248737 .0321653967484342 .0058674379176170
3 .0046441333874611 .03218779298676995 .00779096409511353 .001798088540921575 .0
322113237187466 .00884366548532164 -.0001080950423102032 .0322251562084451 .0089
9706704050969 -.003086820736245035 .0322442506710168 .00841194425414331 -.005703
84868822134 .032258919005613 .00687317055631515 -.00765867761291652 .03226879929
085365 .00455762533553504 -.00873214075108928 .0322738799678674 .001731606415486
62 -.00880820314171562 .03227423129813965 -.00128528272911444 -.0078818339989104
8 .0322698746774748 -.00415526131927321 -.00605768129695915 .0322607710796723 -.
00655849192969056 -.003538179698435755 .0322469097514335 -.00822661793184936 -.0
00602430685734085 .032228524781386 -.00897094734446833 41 1 19 H?-.0006024306857
34085 .032228524781386 -.00897094734446833 141 15 6 15 15 5 74 4 CI16 index_map_
offset0 0 1 dCCZ20 11 2 0 0 69 100 0 0 0 0 0 0 0 0 0 0 0 0 0 0 0 0 0 0 1 0 
