**ABCDEFGHIJKLMNOPQRSTUVWXYZabcdefghijklmnopqrstuvwxyz**************************
**PARASOLID !"#$%&'()*+,-./:;<=>?@[\]^_`{|}~0123456789**************************
**PART1;
MC=AMD64;
MC_MODEL=Intel64 Family 6 Model 94 Stepping 3, GenuineIntel;
MC_ID=unknown;
OS=Windows_NT;
OS_RELEASE=unknown;
FRU=Parasolid Version 28.0, build 204, 11- 9-2015;
APPL=SOLIDWORKS 2016-2016040;
SITE=;
USER=unknown;
FORMAT=text;
GUISE=transmit;
KEY=GOYSTICK D1-LOW;
FILE=GOYSTICK D1-LOW.x_t;
DATE=Sun Jan 15 17:55:16 2017;
**PART2;
SCH=SCH_2800204_28002;
USFLD_SIZE=0;
**PART3;
**END_OF_HEADER*****************************************************************
T51 : TRANSMIT FILE created by modeller version 280020423 SCH_2800204_28002_1300
6200 0 12 30 CCCCCCCCCCCCCDI5 owner1040 0 CCCCCCCCCA13 boundary_mesh1006 0 A16 i
ndex_map_offset0 0 1 dA9 index_map82 0 A17 node_id_index_map82 0 A20 schema_embe
dding_map82 0 A5 child12 0 A14 lowest_node_id0 0 1 dZ1 2784 0 2 0 0 0 0 1e3 1e-8
 0 3 0 1 0 1 1 4 5 6 7 8 9 10 0 0 0 0 0 0 0 70 11 CI9 list_type0 0 1 uI10 notran
smit0 0 1 lCCCDCCDI12 finger_index0 0 1 dI12 finger_block1012 0 CZ2 0 4 T1 0 0 2
 20 1 11 11 13 255 4 95 0 1 0 12 0 0 13 0 54 255 5 578 0 14 15 0 0 +0 5e-4 0 0 1
 0 .0105 5e-4 0 0 1 31 255 6 533 0 9 16 0 0 +0 5e-4 0 0 1 0 0 0 1 .011 29 255 7
 928 0 10 17 0 .002412998828133025 .0145 -.00170390212920478 19 8 CCCCCCCA5 owne
r12 0 Z8 99 0 1 13 0 18 V0 16 255 9 530 0 ?19 0 20 6 0 0 1 18 255 10 926 0 21 0
 22 7 ?1 17 255 21 0 23 24 25 10 26 27 0 28 -18 22 630 0 29 10 30 17 ?1 17 29 0
 31 32 33 22 34 35 0 36 -18 30 598 0 37 22 38 39 ?1 29 17 632 0 22 39 7 -.002253
667838533645 .0145 -.00170390212920478 29 39 600 0 30 40 17 -.00193956527443108
 .0145 -.001344927770230422 29 40 889 0 38 41 39 -.00169347152443108 .0155000000
0000045 -.001344927770230422 18 38 771 0 42 30 43 40 ?1 29 41 891 0 44 45 40 -.0
01169032421866976 .0145 .00179609787079522 18 44 750 0 46 47 48 41 ?1 29 45 892
 0 48 49 41 .000618127033261229 .0145 902685438721417e-19 18 48 752 0 50 44 51 4
5 ?1 29 49 893 0 51 52 45 -.000436360146225951 .0145 -.00157770020612786 18 51 7
54 0 53 48 54 49 ?1 29 52 894 0 54 55 49 -.001546937069302875 .0145 -.0017039021
2920478 18 54 756 0 33 51 56 52 ?1 29 55 896 0 56 57 52 -.002253667838533645 .01
45 .00179609787079522 18 56 748 0 58 54 59 55 ?1 29 57 897 0 43 60 55 -.00116903
2421866976 .0155 .00179609787079522 18 43 747 0 61 38 62 57 ?1 29 60 898 0 62 63
 57 .000618127033261229 .0155 902685438721417e-19 18 62 749 0 64 43 65 60 ?1 29
 63 899 0 65 66 60 -.000436360146225951 .0155 -.00157770020612786 18 65 751 0 67
 62 68 63 ?1 29 66 900 0 68 69 63 -.001546937069302875 .0155 -.00170390212920478
 18 68 753 0 70 65 71 66 ?1 29 69 901 0 71 72 66 -.002253667838533645 .0155 -.00
170390212920478 18 71 755 0 32 68 47 69 ?1 29 72 902 0 47 73 69 -.00225366783853
3645 .0155 .00179609787079522 18 47 757 0 74 71 44 72 ?1 29 73 903 0 75 76 72 -.
00169347152443108 .0145 -.001344927770230422 18 75 770 0 77 78 79 73 ?1 29 76 90
4 0 79 80 73 -.000617950691097746 .0145 -.001246770718948372 18 79 769 0 81 75 8
2 76 ?1 29 80 905 0 82 83 76 .0003040244691586645 .0145 895674220772699e-19 18 8
2 767 0 84 79 85 80 ?1 29 83 906 0 85 86 80 -.000537321684687489 .0145 .00134808
1043872142 18 85 765 0 87 82 88 83 ?1 29 86 907 0 88 89 83 -.00153782248596954 .
0145 .00143712351182086 18 88 763 0 90 85 91 86 ?1 29 89 908 0 91 92 86 -.001939
56527443108 .0145 .00143712351182086 18 91 761 0 93 88 94 89 ?1 29 92 909 0 59 9
5 89 -.00193956527443108 .0155 -.001344927770230422 18 59 772 0 96 56 97 92 ?1 2
9 95 910 0 97 98 92 -.000617950691097746 .0155 -.001246770718948372 18 97 768 0
 99 59 100 95 ?1 29 98 911 0 100 101 95 .0003040244691586645 .0155 8956742207726
99e-19 18 100 766 0 102 97 103 98 ?1 29 101 912 0 103 104 98 -.00053732168468748
9 .0155 .001348081043872142 18 103 764 0 105 100 106 101 ?1 29 104 913 0 106 107
 101 -.00153782248596954 .0155 .00143712351182086 18 106 762 0 108 103 78 104 ?1
 29 107 914 0 78 109 104 -.00193956527443108 .0155 .00143712351182086 18 78 760
 0 110 106 75 107 ?1 29 109 1064 0 111 112 107 .00156043472556892 .0145 -.001344
927770230422 18 111 997 0 113 114 115 109 ?1 29 112 1065 0 115 116 109 .00209889
626403046 .0145 -.001344927770230422 18 115 999 0 117 111 118 112 ?1 29 116 1066
 0 118 119 112 .00209889626403046 .0145 .00179609787079522 18 118 1001 0 120 115
 121 116 ?1 29 119 1067 0 121 122 116 .002412998828133025 .0145 .001796097870795
22 18 121 1003 0 25 118 123 119 ?1 29 122 1069 0 123 124 119 .001765863411466355
 .0145 -.00170390212920478 18 123 995 0 125 121 0 122 ?1 29 124 1070 0 94 126 12
2 .00156043472556892 .0155 -.001344927770230422 18 94 994 0 127 91 128 124 ?1 29
 126 1071 0 128 129 124 .00209889626403046 .0155 -.001344927770230422 18 128 996
 0 130 94 131 126 ?1 29 129 1072 0 131 132 126 .00209889626403046 .0155 .0017960
9787079522 18 131 998 0 133 128 134 129 ?1 29 132 1073 0 134 135 129 .0024129988
28133025 .0155 .00179609787079522 18 134 1000 0 136 131 137 132 ?1 29 135 1074 0
 137 138 132 .002412998828133025 .0155 -.00170390212920478 18 137 1002 0 24 134
 114 135 ?1 29 138 1075 0 114 0 135 .001765863411466355 .0155 -.0017039021292047
8 18 114 1004 0 139 137 111 138 ?1 17 139 0 140 141 142 114 125 143 0 144 -15 25
5 140 1029 0 142 145 0 17 141 0 140 28 139 137 144 146 0 0 +17 142 0 140 139 28
 123 147 148 0 149 -17 125 0 150 151 152 123 139 143 0 142 +16 143 955 0 ?125 15
3 154 155 0 0 1 17 144 0 156 157 158 114 141 146 0 152 -15 156 1032 0 157 159 0
 17 157 0 156 160 144 94 152 161 0 162 -17 158 0 156 144 163 137 164 165 0 141 -
16 146 972 0 ?141 165 161 166 0 0 1 17 152 0 150 125 127 114 157 161 0 0 +15 150
 1009 0 151 167 0 17 127 0 150 152 151 94 113 168 0 157 -16 161 952 0 ?152 146 1
69 170 0 0 1 16 169 991 0 ?171 161 172 173 0 0 1 30 255 170 1063 0 161 0 166 0 +
.00156043472556892 .0155 -.001344927770230422 .496686511837685 0 -.8679300138597
08 30 166 1062 0 146 170 174 0 +.001765863411466355 .0155 -.00170390212920478 1
 0 0 30 174 1061 0 165 166 175 0 +.002412998828133025 .0155 -.00170390212920478
 0 0 1 16 165 968 0 ?164 176 146 174 0 0 1 30 175 1060 0 176 174 177 0 +.0024129
98828133025 .0155 .00179609787079522 -1 0 0 16 176 964 0 ?178 179 165 175 0 0 1
 30 177 1059 0 179 175 180 0 +.00209889626403046 .0155 .00179609787079522 0 0 -1
 16 179 960 0 ?181 154 176 177 0 0 1 30 180 1058 0 154 177 182 0 +.0020988962640
3046 .0155 -.001344927770230422 -1 0 0 16 154 956 0 ?162 143 179 180 0 0 1 30 18
2 1057 0 183 180 184 0 +.00156043472556892 .0145 -.001344927770230422 .496686511
837685 0 -.867930013859708 16 183 976 0 ?149 148 0 182 0 0 1 30 184 1056 0 148 1
82 185 0 +.001765863411466355 .0145 -.00170390212920478 1 0 0 16 148 979 0 ?147
 27 183 184 0 0 1 30 185 1055 0 27 184 186 0 +.002412998828133025 .0145 -.001703
90212920478 0 0 1 16 27 982 0 ?26 187 148 185 0 0 1 30 186 1054 0 187 185 188 0
 +.002412998828133025 .0145 .00179609787079522 -1 0 0 16 187 985 0 ?189 172 27 1
86 0 0 1 30 188 1053 0 172 186 173 0 +.00209889626403046 .0145 .0017960978707952
2 0 0 -1 16 172 988 0 ?190 169 187 188 0 0 1 30 173 1052 0 169 188 191 0 +.00209
889626403046 .0145 -.001344927770230422 -1 0 0 30 191 1051 0 168 173 192 0 +.001
56043472556892 .0155 -.001344927770230422 0 -1 0 16 168 959 0 ?113 193 194 191 0
 0 1 30 192 1050 0 194 191 195 0 +.00209889626403046 .0155 -.001344927770230422
 0 -1 0 16 194 963 0 ?117 168 196 192 0 0 1 30 195 1049 0 196 192 197 0 +.002098
89626403046 .0155 .00179609787079522 0 -1 0 16 196 967 0 ?120 194 198 195 0 0 1
 30 197 1048 0 198 195 199 0 +.002412998828133025 .0155 .00179609787079522 0 -1
 0 16 198 971 0 ?25 196 153 197 0 0 1 30 199 1047 0 153 197 155 0 +.002412998828
133025 .0155 -.00170390212920478 0 -1 0 16 153 975 0 ?28 198 143 199 0 0 1 30 15
5 1046 0 143 199 200 0 +.001765863411466355 .0155 -.00170390212920478 0 -1 0 30
 200 888 0 201 155 202 0 +-.00193956527443108 .0155 -.001344927770230422 0 0 1 1
6 201 719 0 ?110 203 204 200 0 0 1 30 202 887 0 203 200 205 0 +-.001939565274431
08 .0155 .00143712351182086 1 0 0 16 203 723 0 ?108 206 201 202 0 0 1 134 255 20
5 886 0 206 202 207 208 +209 210 16 206 727 0 ?105 211 203 205 0 0 1 134 207 885
 0 211 205 212 213 +214 215 141 255 208 216 208 208 205 136 255 209 3 11 3 9 6 F
FF1 217 218 219 135 255 210 2 0 45 255 33 217 -.00153782248596954 .0155 .0014371
2351182086 -.001480094115229524 .0155 .001436875415446792 -.0013690613168167 .01
55 .001436398235260764 -.00120940331952769 .0155 .001432211032127496 -.001063523
923056844 .0155 .001425369094624186 -.000931402413663661 .0155 .0014157940168155
32 -.00081311338936633 .0155 .001403125401627194 -.000708409639483718 .0155 .001
38900049887969 -.000617634381158853 .0155 .00137140304812363 -.00056270494421687
9 .0155 .00135545208870902 -.000537321684687489 .0155 .001348081043872142 127 25
5 9 218 4 1 1 1 1 1 1 1 4 128 255 9 219 0 .171900664613269 .330627932095881 .475
548835880918 .606746190312363 .72502380346749 .829742386958457 .921322820343975
 1 67 255 216 845 0 220 221 222 0 +205 0 -1 0 .001218944025419644 14 255 220 813
 223 ?224 225 226 4 216 +0 0 224 225 18 67 221 846 0 224 227 216 0 +207 0 -1 0 .
001086304220003682 50 255 222 844 0 225 216 228 0 +-.00193956527443108 .0155 .00
143712351182086 0 0 -1 -1 0 0 14 225 809 229 ?220 230 231 4 222 +0 0 220 230 18
 50 228 843 0 230 222 232 0 +-.00193956527443108 .0155 -.001344927770230422 1 0
 0 0 0 -1 14 230 805 233 ?225 234 235 4 228 +0 0 225 234 18 50 232 842 0 236 228
 237 0 +-.000986280102709836 .0155 -.00168249225334917 89515637934927e-28 1 -124
3291624525306e-27 0 1243291624525306e-27 1 14 236 773 238 ?239 14 240 4 232 +0 0
 239 14 18 67 237 840 0 241 232 242 0 +243 0 -1 0 .00115658827492306 14 241 785
 244 ?245 239 246 4 237 +0 0 245 239 18 67 242 839 0 245 237 247 0 +248 0 -1 0 .
001366330762727684 134 243 862 0 249 248 250 251 +252 253 16 249 699 0 ?254 255
 256 243 0 0 1 134 248 863 0 256 257 243 258 +259 260 30 250 861 0 261 243 262 0
 +-.001169032421866976 .0145 .00179609787079522 -1 0 0 141 251 237 251 251 243 1
36 252 3 27 3 25 6 FFF1 263 264 265 135 253 2 0 45 81 263 .000618127033261229 .0
155 902685438721417e-19 .000617498065782112 .0155 .0001335297823588462 .00061625
8619670694 .0155 .000218780571307141 .00060512930380139 .0155 .00034442146691509
6 .000588952983754901 .0155 .00046633503825957 .000563908785917844 .0155 .000583
9407383023 .000533506272480639 .0155 .000698268956187855 .000494542121187417 .01
55 .000808101200532912 .000449906625011423 .0155 .000914445009865518 .0003978567
46453947 .0155 .001015862485773994 .000340715361447083 .0155 .00111194585811034
 .000279393618247752 .0155 .00120252138622942 .00021395692285196 .0155 .00128629
6608040694 .0001437812899428082 .0155 .001363525220077854 697735734935094e-19 .0
155 .00143409079847177 -855075707388653e-20 .0155 .001498582813818902 -913938078
477753e-19 .0155 .001555739368666955 -.0001783845306079285 .0155 .00160780647688
483 -.0002720606598066115 .0155 .001653226832403095 -.000374196525998615 .0155 .
001691656842206715 -.000485227703980759 .0155 .001723503457577775 -.000604881660
901588 .0155 .001750074353373795 -.000733365138641912 .0155 .001771151656018725
 -.000870804104466177 .0155 .00178527804845644 -.001016987394155554 .0155 .00179
4830981149755 -.001117366659396382 .0155 .00179566737451077 -.001169032421866976
 .0155 .00179609787079522 127 25 264 4 1 1 1 1 1 1 1 1 1 1 1 1 1 1 1 1 1 1 1 1 1
 1 1 4 128 25 265 0 .0460806833872481 .0908067996076163 .1342952705290696 .17702
43856662445 .2188227336826555 .2602441163273735 .301079867113445 .34161389428515
7 .381583418551746 .420119591329617 .458074618542314 .494738487607657 .531194622
893714 .566933698450378 .602712650737996 .638326606128435 .674853248854824 .7134
6737078406 .754441803848381 .797815360712499 .84398945620811 .893071569879648 .9
44963346178144 1 16 261 656 0 ?266 267 268 250 0 0 1 30 262 860 0 267 250 269 0
 +-.002253667838533645 .0145 .00179609787079522 0 0 -1 16 267 659 0 ?270 35 261
 262 0 0 1 30 269 859 0 35 262 271 0 +-.002253667838533645 .0145 -.0017039021292
0478 1 0 0 16 35 662 0 ?34 272 267 269 0 0 1 134 271 858 0 272 269 273 0 +274 27
5 16 272 665 0 ?276 277 35 271 0 0 1 134 273 857 0 277 271 278 0 +279 280 136 27
4 3 11 3 9 6 FFF1 281 282 283 135 275 2 0 45 33 281 -.001546937069302875 .0145 -
.00170390212920478 -.001485468081096534 .0145 -.001703459559208815 -.00136671031
5780596 .0145 -.001702604516279845 -.00119509786833309 .0145 -.00169718312513874
 -.001036314105863082 .0145 -.00168759265929061 -.000890881246781027 .0145 -.001
673623133156 -.000758400034793542 .0145 -.00165647009953467 -.000639241426679417
 .0145 -.001634969695190325 -.00053278928377827 .0145 -.001609581524805615 -.000
467319843189037 .0145 -.00158793607456038 -.000436360146225951 .0145 -.001577700
20612786 127 9 282 4 1 1 1 1 1 1 1 4 128 9 283 0 .164289216474762 .3174059112304
91 .45884361164102 .58936654230531 .707831318778172 .815770030699004 .9128799029
02126 1 16 277 668 0 ?284 285 272 273 0 0 1 134 278 856 0 285 273 286 0 +287 288
 136 279 3 19 3 17 6 FFF1 289 290 291 135 280 2 0 45 57 289 -.000436360146225951
 .0145 -.00157770020612786 -.00039586540691855 .0145 -.001562269500483985 -.0003
15794214634671 .0145 -.00153175800640306 -.000201787092067326 .0145 -.0014742017
05069794 -944617291006758e-19 .0145 -.001408988603320438 675741577234175e-20 .01
45 -.001336032740627592 995582421754732e-19 .0145 -.00125326839214654 .000187566
138911049 .0145 -.001164211306520556 .0002671808627141155 .0145 -.00106562296630
6118 .0003400891587442585 .0145 -.000959547978321617 .000405824818197473 .0145 -
.000847235926103472 .000462963976057009 .0145 -.000728900817409482 .000510417969
393157 .0145 -.000605143609349297 .000549811195989604 .0145 -.000476308461358272
 .000580857653529765 .0145 -.0003421120835465275 .000602039585230176 .0145 -.000
2023982174860555 .000616010575100302 .0145 -577190280924464e-19 .000617414626414
889 .0145 404554356391915e-19 .000618127033261229 .0145 902685438721417e-19 127
 17 290 4 1 1 1 1 1 1 1 1 1 1 1 1 1 1 1 4 128 17 291 0 .0615449660163235 .121694
296402031 .181154855452633 .2398753889119565 .298701942450429 .357647423709201 .
4176048428493665 .478494040728291 .540407050637133 .602344993872803 .66500432792
3234 .728559308823376 .793650542026886 .860534267590267 .929235960561964 1 16 28
5 671 0 ?292 293 277 278 0 0 1 30 286 855 0 294 278 295 0 +-.001169032421866976
 .0155 .00179609787079522 0 -1 0 136 287 3 27 3 25 6 FFF1 296 297 298 135 288 2
 0 45 81 296 .000618127033261229 .0145 902685438721417e-19 .000617498065782112 .
0145 .0001335297823588462 .000616258619670694 .0145 .000218780571307141 .0006051
2930380139 .0145 .000344421466915096 .000588952983754901 .0145 .0004663350382595
7 .000563908785917844 .0145 .0005839407383023 .000533506272480639 .0145 .0006982
68956187855 .000494542121187417 .0145 .000808101200532912 .000449906625011423 .0
145 .000914445009865518 .000397856746453947 .0145 .001015862485773994 .000340715
361447083 .0145 .00111194585811034 .000279393618247752 .0145 .00120252138622942
 .00021395692285196 .0145 .001286296608040694 .0001437812899428082 .0145 .001363
525220077854 697735734935094e-19 .0145 .00143409079847177 -855075707388653e-20 .
0145 .001498582813818902 -913938078477753e-19 .0145 .001555739368666955 -.000178
3845306079285 .0145 .00160780647688483 -.0002720606598066115 .0145 .001653226832
403095 -.000374196525998615 .0145 .001691656842206715 -.000485227703980759 .0145
 .001723503457577775 -.000604881660901588 .0145 .001750074353373795 -.0007333651
38641912 .0145 .001771151656018725 -.000870804104466177 .0145 .00178527804845644
 -.001016987394155554 .0145 .001794830981149755 -.001117366659396382 .0145 .0017
9566737451077 -.001169032421866976 .0145 .00179609787079522 127 25 297 4 1 1 1 1
 1 1 1 1 1 1 1 1 1 1 1 1 1 1 1 1 1 1 1 4 128 25 298 0 .0460806833872481 .0908067
996076163 .1342952705290696 .1770243856662445 .2188227336826555 .260244116327373
5 .301079867113445 .341613894285157 .381583418551746 .420119591329617 .458074618
542314 .494738487607657 .531194622893714 .566933698450378 .602712650737996 .6383
26606128435 .674853248854824 .71346737078406 .754441803848381 .797815360712499 .
84398945620811 .893071569879648 .944963346178144 1 16 294 702 0 ?46 299 300 286
 0 0 1 30 295 854 0 300 286 301 0 +.000618127033261229 .0155 902685438721417e-19
 0 -1 0 16 300 706 0 ?50 294 302 295 0 0 1 30 301 853 0 302 295 303 0 +-.0004363
60146225951 .0155 -.00157770020612786 0 -1 0 16 302 710 0 ?53 300 304 301 0 0 1
 30 303 852 0 304 301 305 0 +-.001546937069302875 .0155 -.00170390212920478 0 -1
 0 16 304 714 0 ?33 302 306 303 0 0 1 30 305 851 0 306 303 307 0 +-.002253667838
533645 .0155 -.00170390212920478 0 -1 0 16 306 718 0 ?36 304 255 305 0 0 1 30 30
7 850 0 255 305 308 0 +-.002253667838533645 .0155 .00179609787079522 0 -1 0 16 2
55 698 0 ?58 306 249 307 0 0 1 31 308 195 0 299 307 309 0 +0 .001 0 0 -1 0 0 0 -
1 .00922 16 299 128 0 ?310 311 294 308 0 0 1 31 309 196 0 311 308 312 0 +0 .001
 0 0 -1 0 0 0 -1 .00887 16 311 133 0 ?313 314 299 309 0 0 1 31 312 203 0 314 309
 315 0 +0 .012 0 0 -1 0 0 0 -1 .009 16 314 168 0 ?316 317 311 312 0 0 1 31 315 3
16 0 317 312 318 0 +0 .0058736785598459 0 0 1 0 0 0 1 .01034202014332566 16 317
 313 0 ?319 320 314 315 0 0 1 31 318 322 0 320 315 321 0 +0 .0077605149174238 0
 0 -1 0 0 0 -1 .00515797985667433 16 320 319 0 ?322 323 317 318 0 0 1 31 321 328
 0 323 318 324 0 -0 .011 0 0 1 0 0 0 1 .0045 16 323 325 0 ?325 326 320 321 0 0 1
 31 324 334 0 326 321 327 0 -0 .00870020753820971 0 0 -1 0 0 0 -1 .0045 16 326 3
31 0 ?328 329 323 324 0 0 1 31 327 340 0 329 324 330 0 -0 .00493398593905999 0 0
 1 0 0 0 1 .011 16 329 337 0 ?331 332 326 327 0 0 1 31 330 346 0 332 327 333 0 +
0 .014 0 0 -1 0 0 0 -1 .009 16 332 343 0 ?334 335 329 330 0 0 1 31 333 352 0 335
 330 336 0 -0 .015 0 0 -1 0 0 0 -1 .008 16 335 349 0 ?337 338 332 333 0 0 1 31 3
36 358 0 338 333 339 0 +0 .012 0 0 1 0 0 0 1 .0055 16 338 355 0 ?340 341 335 336
 0 0 1 31 339 440 0 341 336 342 0 +0 .015 0 0 -1 0 0 0 -1 .006 16 341 437 0 ?343
 344 338 339 0 0 1 31 342 466 0 344 339 345 0 +0 .01475 0 0 -1 0 0 0 -1 .0055669
872981078 16 344 463 0 ?346 347 341 342 0 0 1 31 345 472 0 347 342 348 0 -0 .014
5 0 0 -1 0 0 0 -1 .00513397459621556 16 347 469 0 ?349 350 344 345 0 0 1 31 348
 501 0 350 345 351 0 -0 .0047 0 0 1 0 0 0 1 .00872 16 350 498 0 ?352 353 347 348
 0 0 1 31 351 507 0 353 348 354 0 +0 .0042 0 0 1 0 0 0 1 .00922 16 353 504 0 ?35
5 356 350 351 0 0 1 31 354 513 0 356 351 357 0 -0 5e-4 0 0 1 0 0 0 1 .00887 16 3
56 510 0 ?358 359 353 354 0 0 1 31 357 519 0 359 354 16 0 -0 0 0 0 1 0 0 0 1 .01
05 16 359 516 0 ?360 20 356 357 0 0 1 31 16 526 0 20 357 6 0 +0 0 0 0 1 0 0 0 1
 .00937 16 20 523 0 ?361 9 359 16 0 0 1 17 361 0 362 361 361 0 363 20 0 0 +15 36
2 524 0 361 364 365 17 363 0 366 363 363 0 361 20 0 0 -15 366 559 0 363 367 368
 14 367 558 369 ?14 370 366 4 15 +0 0 14 370 18 15 368 560 0 371 367 0 17 371 0
 368 371 371 0 358 356 0 0 -17 358 0 372 358 358 0 371 356 0 0 +15 372 511 0 358
 373 374 14 373 141 375 ?376 364 372 4 377 -0 0 376 364 18 15 374 268 0 378 373
 0 17 378 0 374 378 378 0 313 311 0 0 -17 313 0 379 313 313 0 378 311 0 0 +15 37
9 135 0 313 376 0 14 376 136 380 ?381 373 382 4 383 -0 0 381 373 18 81 255 1 380
 2749 384 376 385 0 375 386 387 14 381 131 386 ?388 376 389 4 390 -0 0 388 376 1
8 15 382 267 0 391 376 379 50 383 182 0 376 390 377 0 +-.00922 .001 0 0 -1 0 0 0
 -1 13 18 98 0 0 0 0 0 0 8 12 14 12 625 392 ?393 0 394 4 395 -396 396 393 0 18 8
1 1 392 2751 384 12 397 0 386 398 399 14 393 174 398 ?400 12 401 4 402 -0 0 400
 12 18 15 394 924 0 171 12 403 50 395 179 0 396 404 405 0 +-.0055 .0145 0 0 -1 0
 0 0 -1 14 396 116 406 ?167 407 408 4 395 -12 12 167 407 18 81 1 406 2753 384 39
6 409 0 398 410 411 14 167 1006 410 ?412 396 150 4 413 +0 0 412 396 18 14 407 82
9 414 ?396 415 416 4 417 +0 0 396 415 18 15 408 596 0 418 396 0 17 418 0 408 419
 420 30 421 204 0 0 +17 419 0 408 422 418 91 423 193 0 0 +17 420 0 408 418 424 7
5 425 426 0 0 +17 421 0 416 42 37 75 418 204 0 420 -16 204 692 0 ?418 201 426 42
7 0 0 1 16 426 689 0 ?420 204 428 429 0 0 1 30 427 875 0 204 429 430 0 +-.001693
47152443108 .0145 -.001344927770230422 -1 0 0 134 429 876 0 426 431 427 0 +432 4
33 30 430 874 0 434 427 435 0 +-.00193956527443108 .0155 -.001344927770230422 0
 -1 0 16 434 746 0 ?37 436 437 430 0 0 1 30 435 873 0 436 430 438 0 +-.001693471
52443108 .0155 -.001344927770230422 0 -1 0 16 436 742 0 ?77 439 434 435 0 0 1 30
 438 872 0 439 435 440 0 +-.000617950691097746 .0155 -.001246770718948372 0 -1 0
 16 439 738 0 ?81 441 436 438 0 0 1 30 440 871 0 441 438 442 0 +.000304024469158
6645 .0155 895674220772699e-19 0 -1 0 16 441 734 0 ?84 443 439 440 0 0 1 30 442
 870 0 443 440 444 0 +-.000537321684687489 .0155 .001348081043872142 0 -1 0 16 4
43 730 0 ?87 445 441 442 0 0 1 30 444 869 0 445 442 446 0 +-.00153782248596954 .
0155 .00143712351182086 0 -1 0 16 445 726 0 ?90 268 443 444 0 0 1 30 446 868 0 2
68 444 447 0 +-.00193956527443108 .0155 .00143712351182086 0 -1 0 16 268 722 0 ?
448 261 445 446 0 0 1 30 447 867 0 293 446 449 0 +-.001169032421866976 .0155 .00
179609787079522 -1 0 0 16 293 695 0 ?450 451 285 447 0 0 1 30 449 866 0 451 447
 452 0 +-.002253667838533645 .0155 .00179609787079522 0 0 -1 16 451 715 0 ?453 4
54 293 449 0 0 1 30 452 865 0 454 449 257 0 +-.002253667838533645 .0155 -.001703
90212920478 1 0 0 16 454 711 0 ?455 456 451 452 0 0 1 134 257 864 0 456 452 248
 457 +458 459 16 456 707 0 ?460 256 454 257 0 0 1 141 457 247 457 457 257 136 45
8 3 11 3 9 6 FFF1 461 462 463 135 459 2 0 45 33 461 -.001546937069302875 .0155 -
.00170390212920478 -.001485468081096534 .0155 -.001703459559208815 -.00136671031
5780596 .0155 -.001702604516279845 -.00119509786833309 .0155 -.00169718312513874
 -.001036314105863082 .0155 -.00168759265929061 -.000890881246781027 .0155 -.001
673623133156 -.000758400034793542 .0155 -.00165647009953467 -.000639241426679417
 .0155 -.001634969695190325 -.00053278928377827 .0155 -.001609581524805615 -.000
467319843189037 .0155 -.00158793607456038 -.000436360146225951 .0155 -.001577700
20612786 127 9 462 4 1 1 1 1 1 1 1 4 128 9 463 0 .164289216474762 .3174059112304
91 .45884361164102 .58936654230531 .707831318778172 .815770030699004 .9128799029
02126 1 67 247 838 0 464 242 465 0 +257 0 -1 0 .00153178903953049 14 464 793 466
 ?467 245 468 4 247 +0 0 467 245 18 50 465 837 0 467 247 469 0 +-.00225366783853
3645 .0155 -.00170390212920478 0 0 -1 -1 0 0 14 467 797 470 ?234 464 31 4 465 +0
 0 234 464 18 50 469 836 0 234 465 471 0 +-.002253667838533645 .0155 .0017960978
7079522 -1 0 0 0 0 1 14 234 801 472 ?230 467 473 4 469 +0 0 230 467 18 50 471 83
5 0 239 469 404 0 +-.001169032421866976 .0155 .00179609787079522 0 0 1 1 0 0 14
 239 781 474 ?241 236 475 4 471 +0 0 241 236 18 50 404 177 0 476 471 395 0 +-.00
55 .015 0 0 -1 0 0 0 -1 14 476 106 477 ?478 388 479 4 404 -0 0 478 388 18 81 1 4
77 2760 384 476 480 0 474 481 482 14 478 370 481 ?483 476 484 4 485 -0 0 483 476
 18 14 388 126 486 ?476 381 487 4 405 -0 0 476 381 18 15 479 438 0 343 476 488 1
7 343 0 479 343 343 0 489 341 0 0 +15 488 350 0 337 476 0 17 337 0 488 337 337 0
 490 335 0 0 +17 490 0 491 490 490 0 337 335 0 0 -15 491 397 0 490 492 493 14 49
2 396 494 ?495 483 491 4 496 +0 0 495 483 18 15 493 398 0 497 492 0 17 497 0 493
 497 497 0 334 332 0 0 -17 334 0 401 334 334 0 497 332 0 0 +15 401 344 0 334 393
 498 15 498 275 0 499 393 0 17 499 0 498 499 499 0 316 314 0 0 -17 316 0 500 316
 316 0 499 314 0 0 +15 500 170 0 316 400 0 14 400 171 501 ?502 393 503 4 504 -0
 0 502 393 18 81 1 501 2764 384 400 505 0 494 506 507 14 502 166 506 ?508 400 50
9 4 510 -0 0 508 400 18 15 503 356 0 340 400 500 50 504 189 0 400 510 402 0 +-.0
09 .012 0 0 1 0 0 0 1 51 255 510 188 0 502 511 504 0 -0 0 0 0 -1 0 .0045 0 0 -1
 51 402 190 0 393 504 485 0 -0 0 0 0 -1 0 .009 0 0 -1 54 485 377 0 478 402 512 0
 +0 .00870020753820971 0 0 -1 0 .0055 .001 0 0 -1 54 512 390 0 483 485 496 0 +0
 .00493398593905999 0 0 1 0 .01 .001 0 0 1 14 483 383 513 ?492 478 514 4 512 +0
 0 492 478 18 54 496 403 0 492 512 515 0 +0 .014 0 0 -1 0 .008 .001 0 0 -1 54 51
5 416 0 495 496 516 0 +0 .011 0 0 1 0 .0055 .001 0 0 1 14 495 409 517 ?518 492 5
19 4 515 -0 0 518 492 18 54 516 456 0 518 515 520 0 +0 .0145 0 0 -1 0 .006 5e-4
 0 0 -1 14 518 449 521 ?522 495 523 4 516 +0 0 522 495 18 54 520 488 0 522 516 5
24 0 +0 .015 0 0 1 0 .00513397459621556 5e-4 0 0 1 14 522 481 525 ?370 518 526 4
 520 -0 0 370 518 18 54 524 552 0 370 520 15 0 +0 .0042 0 0 1 0 .00872 5e-4 0 0
 1 14 370 545 527 ?367 522 528 4 524 -0 0 367 522 18 54 15 565 0 367 524 5 0 +0
 5e-4 0 0 1 0 .00937 5e-4 0 0 1 81 1 527 2770 384 370 529 0 525 530 531 15 528 5
46 0 532 370 533 17 532 0 528 532 532 0 355 353 0 0 -15 533 547 0 534 370 0 17 5
34 0 533 534 534 0 352 350 0 0 -17 352 0 487 352 352 0 534 350 0 0 +15 487 499 0
 352 388 0 17 355 0 389 355 355 0 532 353 0 0 +15 389 505 0 355 381 535 15 535 1
30 0 310 381 0 17 310 0 535 310 310 0 391 299 0 0 +17 391 0 382 391 391 0 310 29
9 0 0 -80 255 1 384 536 537 9000 1 1 1 1 1 1 1 1 0 FFFFTFTFFFFFFF1 81 1 529 2628
 538 370 0 527 539 540 541 81 1 525 2769 384 522 539 0 521 527 542 81 1 530 2771
 384 14 543 0 527 544 545 82 255 1 531 24248482 14 14 571 530 ?236 367 546 4 5 +
0 0 236 367 18 81 1 543 2630 538 14 0 530 540 547 548 81 1 544 2772 384 245 549
 0 530 550 551 82 1 545 26738850 14 245 789 544 ?464 241 552 4 242 +0 0 464 241
 18 81 1 549 2634 538 245 0 544 553 554 555 81 1 550 2773 384 224 556 0 544 557
 558 82 1 551 87556260 14 224 817 550 ?559 220 560 4 221 +0 0 559 220 18 81 1 55
6 2641 538 224 0 550 561 562 563 81 1 557 2774 384 559 562 0 550 564 565 82 1 55
8 105709732 14 559 821 557 ?415 224 566 4 227 +0 0 415 224 18 81 1 562 2642 538
 559 0 557 556 567 568 81 1 564 2775 384 415 567 0 557 569 570 82 1 565 10544758
8 14 415 825 564 ?407 559 571 4 572 +0 0 407 559 18 81 1 567 2643 538 415 0 564
 562 573 574 81 1 569 2776 384 412 575 0 564 576 577 82 1 570 105185444 14 412 1
010 569 ?578 167 579 4 580 +0 0 578 167 18 81 1 575 2647 538 412 0 569 581 582 5
83 81 1 576 2777 384 578 582 0 569 584 585 82 1 577 121831588 14 578 1014 576 ?5
86 412 587 4 588 +0 0 586 412 18 81 1 582 2648 538 578 0 576 575 589 590 81 1 58
4 2778 384 586 589 0 576 591 592 82 1 585 121962660 14 586 1018 584 ?593 578 594
 4 595 +0 0 593 578 18 81 1 589 2649 538 586 0 584 582 596 597 81 1 591 2779 384
 593 596 0 584 598 599 82 1 592 122093732 14 593 1022 591 ?145 586 23 4 600 +0 0
 145 586 18 81 1 596 2650 538 593 0 591 589 601 602 81 1 598 2780 384 145 601 0
 591 603 604 82 1 599 122224804 14 145 1026 598 ?159 593 140 4 605 +0 0 159 593
 18 81 1 601 2651 538 145 0 598 596 606 607 81 1 603 2781 384 159 606 0 598 608
 609 82 1 604 122355876 14 159 1030 603 ?0 145 156 4 610 -0 0 0 145 18 81 1 606
 2652 538 159 0 603 601 0 611 81 1 608 2782 384 612 613 0 603 614 615 82 1 609 1
12525476 14 612 156 608 ?364 508 616 4 617 -0 0 364 508 18 81 1 613 2615 538 612
 0 608 618 619 620 81 1 614 2783 384 364 619 0 608 621 622 82 1 615 -13238110 14
 364 146 614 ?373 612 362 4 623 -0 0 373 612 18 81 1 619 2616 538 364 0 614 613
 624 625 81 1 621 2784 384 508 618 0 614 0 626 82 1 622 -14417758 14 508 161 621
 ?612 502 627 4 511 -0 0 612 502 18 81 1 618 2614 538 508 0 621 628 613 629 82 1
 626 -12648289 80 1 538 0 630 8001 0 0 0 0 3 5 0 0 0 FFFFTFTFFFFFFF2 81 1 628 26
13 538 502 0 506 505 618 631 83 255 3 629 .792156862745098 .819607843137255 .933
333333333333 81 1 506 2765 384 502 628 0 501 513 632 81 1 505 2612 538 400 0 501
 633 628 634 83 3 631 .792156862745098 .819607843137255 .933333333333333 81 1 63
3 2611 538 393 0 398 397 505 635 83 3 634 .792156862745098 .819607843137255 .933
333333333333 81 1 398 2752 384 393 633 0 392 406 636 81 1 397 2610 538 12 0 392
 0 633 637 83 3 635 .792156862745098 .819607843137255 .933333333333333 83 3 637
 .792156862745098 .819607843137255 .933333333333333 82 1 636 -11140961 81 1 513
 2766 384 483 638 0 506 517 639 82 1 632 -12058465 81 1 638 2623 538 483 0 513 6
40 641 642 81 1 517 2767 384 495 643 0 513 521 644 82 1 639 1966239 81 1 643 262
5 538 495 0 517 641 645 646 81 1 521 2768 384 518 645 0 517 525 647 82 1 644 445
6607 81 1 645 2626 538 518 0 521 643 539 648 82 1 647 14024865 81 1 539 2627 538
 522 0 525 645 529 649 83 3 648 .792156862745098 .819607843137255 .9333333333333
33 83 3 649 .792156862745098 .819607843137255 .933333333333333 81 1 641 2624 538
 492 0 494 638 643 650 83 3 646 .792156862745098 .819607843137255 .9333333333333
33 81 1 494 2763 384 492 641 0 486 501 651 83 3 650 .792156862745098 .8196078431
37255 .933333333333333 81 1 486 2762 384 388 652 0 481 494 653 82 1 651 3211423
 81 1 652 2620 538 388 0 486 654 480 655 81 1 481 2761 384 478 640 0 477 486 656
 82 1 653 -16777054 81 1 640 2622 538 478 0 481 480 638 657 82 1 656 721055 81 1
 480 2621 538 476 0 477 652 640 658 83 3 657 .792156862745098 .819607843137255 .
933333333333333 83 3 658 .792156862745098 .819607843137255 .933333333333333 81 1
 654 2619 538 381 0 386 385 652 659 83 3 655 .792156862745098 .819607843137255 .
933333333333333 81 1 386 2750 384 381 654 0 380 392 660 81 1 385 2618 538 376 0
 380 624 654 661 83 3 659 .792156862745098 .819607843137255 .933333333333333 81
 1 624 2617 538 373 0 375 619 385 662 83 3 661 .792156862745098 .819607843137255
 .933333333333333 81 1 375 2748 384 373 624 0 369 380 663 83 3 662 .792156862745
098 .819607843137255 .933333333333333 81 1 369 2747 384 367 540 0 244 375 664 82
 1 663 -15007582 81 1 540 2629 538 367 0 369 529 543 665 81 1 244 2746 384 241 5
53 0 238 369 666 82 1 664 25493666 81 1 553 2633 538 241 0 244 667 549 668 81 1
 238 2745 384 236 547 0 233 244 669 82 1 666 87425188 81 1 547 2631 538 236 0 23
8 543 667 670 81 1 233 2744 384 230 671 0 229 238 672 82 1 669 130810020 81 1 67
1 2638 538 230 0 233 673 674 675 81 1 229 2743 384 225 674 0 223 233 676 82 1 67
2 106496164 81 1 674 2639 538 225 0 229 671 561 677 81 1 223 2742 384 220 561 0
 0 229 678 82 1 676 106234020 81 1 561 2640 538 220 0 223 674 556 679 82 1 678 1
05971876 83 3 679 .792156862745098 .819607843137255 .933333333333333 83 3 677 .7
92156862745098 .819607843137255 .933333333333333 81 1 673 2637 538 234 0 472 680
 671 681 83 3 675 .792156862745098 .819607843137255 .933333333333333 81 1 472 27
58 384 234 673 0 470 474 682 81 1 680 2636 538 467 0 470 554 673 683 83 3 681 .7
92156862745098 .819607843137255 .933333333333333 81 1 470 2757 384 467 680 0 466
 472 684 81 1 554 2635 538 464 0 466 549 680 685 83 3 683 .792156862745098 .8196
07843137255 .933333333333333 81 1 466 2756 384 464 554 0 414 470 686 83 3 685 .7
92156862745098 .819607843137255 .933333333333333 81 1 414 2755 384 407 573 0 410
 466 687 82 1 686 87687332 81 1 573 2644 538 407 0 414 567 409 688 81 1 410 2754
 384 167 581 0 406 414 689 82 1 687 104923300 81 1 581 2646 538 167 0 410 409 57
5 690 82 1 689 122486948 81 1 409 2645 538 396 0 406 573 581 691 83 3 690 .79215
6862745098 .819607843137255 .933333333333333 83 3 691 .792156862745098 .81960784
3137255 .933333333333333 83 3 688 .792156862745098 .819607843137255 .93333333333
3333 82 1 684 87818404 81 1 474 2759 384 239 667 0 472 477 692 82 1 682 87949476
 81 1 667 2632 538 239 0 474 547 553 693 82 1 692 88080548 83 3 693 .79215686274
5098 .819607843137255 .933333333333333 83 3 670 .792156862745098 .81960784313725
5 .933333333333333 83 3 668 .792156862745098 .819607843137255 .933333333333333 8
3 3 665 .792156862745098 .819607843137255 .933333333333333 82 1 660 -16187230 83
 3 642 .792156862745098 .819607843137255 .933333333333333 79 255 15 630 SDL/TYSA
_COLOUR15 627 320 0 322 508 694 52 255 511 187 0 508 617 510 0 -0 .008 0 0 -1 0
 .0045 .939692620785909 .342020143325666 0 0 -1 51 617 186 0 612 623 511 0 -0 0
 0 0 -1 0 .011 0 0 -1 50 623 184 0 364 377 617 0 +-.009 0 0 0 1 0 0 0 1 51 377 1
83 0 373 383 623 0 +0 0 0 0 -1 0 .00887 0 0 -1 17 322 0 627 322 322 0 695 320 0
 0 +15 694 314 0 319 508 0 17 319 0 694 319 319 0 696 317 0 0 +17 696 0 514 696
 696 0 319 317 0 0 -15 514 384 0 696 483 697 15 697 385 0 698 483 0 17 698 0 697
 698 698 0 331 329 0 0 -17 331 0 699 331 331 0 698 329 0 0 +15 699 338 0 331 612
 0 17 695 0 700 695 695 0 322 320 0 0 -15 700 372 0 695 478 0 83 3 625 .79215686
2745098 .819607843137255 .933333333333333 83 3 620 .792156862745098 .81960784313
7255 .933333333333333 15 616 531 0 19 612 699 17 19 0 616 19 19 0 701 9 0 0 +17
 701 0 546 701 701 0 19 9 0 0 -15 546 572 0 701 14 702 15 702 573 0 703 14 0 17
 703 0 702 703 703 0 360 359 0 0 -17 360 0 365 360 360 0 703 359 0 0 +15 365 517
 0 360 364 0 83 3 611 .792156862745098 .819607843137255 .933333333333333 50 610
 1045 0 159 0 580 0 +0 .0155 0 0 -1 0 0 0 -1 50 580 1043 0 412 610 588 0 +.00209
889626403046 .0155 -.001344927770230422 0 0 1 1 0 0 50 588 1042 0 578 580 595 0
 +.00209889626403046 .0155 .00179609787079522 -1 0 0 0 0 1 50 595 1041 0 586 588
 600 0 +.002412998828133025 .0155 .00179609787079522 0 0 1 1 0 0 50 600 1040 0 5
93 595 605 0 +.002412998828133025 .0155 -.00170390212920478 1 0 0 0 0 -1 50 605
 1039 0 145 600 413 0 +.001765863411466355 .0155 -.00170390212920478 0 0 -1 -1 0
 0 50 413 1038 0 167 605 417 0 +.00156043472556892 .0155 -.001344927770230422 -.
867930013859708 0 -.496686511837685 -.496686511837685 0 .867930013859708 50 417
 849 0 407 413 572 0 +-.00169347152443108 .0155 -.001344927770230422 0 0 1 1 0 0
 67 572 848 0 415 417 227 0 +704 0 -1 0 .00159986230885375 67 227 847 0 559 572
 221 0 +212 0 -1 0 .001152495378885176 134 704 883 0 705 212 706 707 +708 709 16
 705 739 0 ?710 437 711 704 0 0 1 134 212 884 0 711 207 704 712 +713 714 30 706
 882 0 437 704 715 0 +-.00169347152443108 .0155 -.001344927770230422 -1 0 0 141
 707 572 707 707 704 136 708 3 11 3 9 6 FFF1 716 717 718 135 709 2 0 45 33 716 -
.000617950691097746 .0155 -.001246770718948372 -.000647301837469414 .0155 -.0012
54887146819688 -.000709710427750854 .0155 -.001272144899384296 -.000811549891776
358 .0155 -.001290970271905932 -.000926165041205761 .0155 -.001307574770922784 -
.001054064742319458 .0155 -.001321632810270036 -.001195103201415124 .0155 -.0013
31720131612012 -.00134938888940054 .0155 -.001339291446219376 -.0015169884939681
7 .0155 -.001344398078701754 -.001633171027821235 .0155 -.001344746785904932 -.0
0169347152443108 .0155 -.001344927770230422 127 9 717 4 1 1 1 1 1 1 1 4 128 9 71
8 0 .0843186169585818 .1792845142139035 .286582527646561 .4051114834342785 .5355
92873418974 .678190209993413 .832975839760488 1 16 437 743 0 ?96 434 705 706 0 0
 1 30 715 881 0 193 706 719 0 +-.00193956527443108 .0145 -.001344927770230422 0
 0 1 16 193 674 0 ?419 720 168 715 0 0 1 30 719 880 0 720 715 721 0 +-.001939565
27443108 .0145 .00143712351182086 1 0 0 16 720 677 0 ?422 722 193 719 0 0 1 134
 721 879 0 722 719 723 0 +724 725 16 722 680 0 ?726 727 720 721 0 0 1 134 723 87
8 0 727 721 431 0 +728 729 136 724 3 11 3 9 6 FFF1 730 731 732 135 725 2 0 45 33
 730 -.00153782248596954 .0145 .00143712351182086 -.001480094115229524 .0145 .00
1436875415446792 -.0013690613168167 .0145 .001436398235260764 -.0012094033195276
9 .0145 .001432211032127496 -.001063523923056844 .0145 .001425369094624186 -.000
931402413663661 .0145 .001415794016815532 -.00081311338936633 .0145 .00140312540
1627194 -.000708409639483718 .0145 .00138900049887969 -.000617634381158853 .0145
 .00137140304812363 -.000562704944216879 .0145 .00135545208870902 -.000537321684
687489 .0145 .001348081043872142 127 9 731 4 1 1 1 1 1 1 1 4 128 9 732 0 .171900
664613269 .330627932095881 .475548835880918 .606746190312363 .72502380346749 .82
9742386958457 .921322820343975 1 16 727 683 0 ?733 428 722 723 0 0 1 134 431 877
 0 428 723 429 0 +734 735 136 728 3 19 3 17 6 FFF1 736 737 738 135 729 2 0 45 57
 736 -.000537321684687489 .0145 .001348081043872142 -.000505373322610416 .0145 .
001336829485629406 -.000442239684426441 .0145 .001314595112380816 -.000351358599
2221375 .0145 .001274037451193286 -.000266601594564368 .0145 .00122599538144374
 -.00018649156927822 .0145 .001172593107460632 -.000112164913847165 .0145 .00111
1947105443702 -4274079753982345e-20 .0145 .001045376116639736 216410038203023e-1
9 .0145 .000972541341567938 803153118111874e-19 .0145 .000893533180005084 .00013
2823615844472 .0145 .000808843384364651 .000178294845253338 .0145 .0007193045506
92574 .0002181463768447575 .0145 .000625897740472663 .0002494249694609275 .0145
 .000527188581818986 .00027394055363428 .0145 .00042405952340301 .00029130524159
4076 .0145 .0003165033101413905 .000302119966053898 .0145 .000204540028284935 .0
00303381413992544 .0145 .0001283879040177564 .0003040244691586645 .0145 89567422
0772699e-19 127 17 737 4 1 1 1 1 1 1 1 1 1 1 1 1 1 1 1 4 128 17 738 0 .062414500
2632777 .1233382314733142 .1831245376921935 .2417829946389435 .3005788825509775
 .359680074896626 .418881640850047 .479530664457783 .540850535760039 .6023033958
9838 .664463211946473 .727805722667012 .792894814781235 .859672328302832 .928464
400733489 1 16 428 686 0 ?424 426 727 431 0 0 1 136 734 3 19 3 17 6 FFF1 739 740
 741 135 735 2 0 45 57 739 .0003040244691586645 .0145 895674220772699e-19 .00030
35111817946665 .0145 48633941779728e-18 .000302502824224726 .0145 -3178024258772
95e-19 .000289828513802273 .0145 -.0001497709378604612 .0002713069583028985 .014
5 -.0002632515883856825 .00024452327226416 .0145 -.000372229783779288 .000210392
393418741 .0145 -.000476918135954572 .000167797751662565 .0145 -.000576737646150
804 .000119131132394303 .0145 -.000672742515023644 612277955502719e-19 .0145 -.0
00762716880757455 -2187797810387065e-21 .0145 -.000847809989886839 -725656771446
248e-19 .0145 -.000925764905470839 -.0001487877156732734 .0145 -.000996759205748
39 -.0002300225651278295 .0145 -.001061898518409124 -.0003185596643755275 .0145
 -.001118562194297818 -.0004123133551656685 .0145 -.00116924887537998 -.00051265
9026349527 .0145 -.001212264766718754 -.000582471722189676 .0145 -.0012351436294
80032 -.000617950691097746 .0145 -.001246770718948372 127 17 740 4 1 1 1 1 1 1 1
 1 1 1 1 1 1 1 1 4 128 17 741 0 .0701511759972784 .1378126061901916 .20322624718
1394 .267174055294474 .330024003408179 .3917942717866855 .453084398997141 .51433
3907645878 .574999992818269 .634865482622213 .694116315189642 .753441621780438 .
813125800303612 .874079685637075 .936007013274407 1 17 424 0 408 420 733 79 742
 428 0 0 +17 733 0 408 424 726 82 743 727 0 0 +17 742 0 566 744 81 82 424 428 0
 733 -15 566 824 0 742 559 0 17 744 0 566 99 742 100 84 441 0 745 -17 81 0 566 7
42 99 79 746 439 0 425 +17 99 0 566 81 744 97 745 711 0 746 +17 746 0 571 710 42
5 97 81 439 0 747 -17 425 0 571 746 77 79 420 426 0 424 -15 571 828 0 425 415 0
 17 77 0 571 425 710 75 42 436 0 421 +17 710 0 571 77 746 38 747 705 0 748 +17 4
2 0 416 96 421 38 77 436 0 710 -15 416 832 0 421 407 0 17 96 0 416 37 42 59 748
 437 0 749 +17 37 0 416 421 96 30 749 434 0 423 +17 748 0 750 747 751 38 96 437
 0 0 -17 749 0 235 110 423 59 37 434 0 751 -15 235 808 0 423 230 0 17 110 0 235
 448 749 78 751 201 0 752 +17 423 0 235 749 448 30 419 193 0 418 -17 751 0 750 7
48 753 59 110 201 0 0 -15 750 776 0 753 236 0 17 753 0 750 751 754 78 108 203 0
 0 -17 754 0 750 753 755 106 105 206 0 0 -17 108 0 231 90 752 106 753 203 0 756
 +15 231 812 0 93 225 0 17 90 0 231 93 108 88 756 445 0 757 +17 752 0 231 108 93
 78 448 268 0 753 -17 756 0 226 105 757 106 90 445 0 754 -15 226 816 0 757 220 0
 17 105 0 226 87 756 103 754 206 0 758 +17 757 0 226 756 87 88 726 722 0 422 -17
 87 0 226 757 105 85 758 443 0 743 +17 726 0 408 733 422 85 757 722 0 0 +17 422
 0 408 726 419 88 93 720 0 0 +17 93 0 231 752 90 91 422 720 0 448 -17 448 0 235
 423 110 91 752 268 0 419 +17 758 0 560 102 743 103 87 443 0 755 -17 743 0 560 7
58 84 85 733 727 0 726 -15 560 820 0 743 224 0 17 84 0 560 743 102 82 744 441 0
 742 +17 102 0 560 84 758 100 755 211 0 744 +17 755 0 750 754 745 103 102 211 0
 0 -16 211 731 0 ?102 711 206 207 0 0 1 16 711 735 0 ?99 705 211 212 0 0 1 17 74
5 0 750 755 747 100 99 711 0 0 -17 747 0 750 745 748 97 710 705 0 0 -141 712 227
 712 712 212 136 713 3 19 3 17 6 FFF1 759 760 761 135 714 2 0 45 57 759 .0003040
244691586645 .0155 895674220772699e-19 .0003035111817946665 .0155 48633941779728
e-18 .000302502824224726 .0155 -317802425877295e-19 .000289828513802273 .0155 -.
0001497709378604612 .0002713069583028985 .0155 -.0002632515883856825 .0002445232
7226416 .0155 -.000372229783779288 .000210392393418741 .0155 -.00047691813595457
2 .000167797751662565 .0155 -.000576737646150804 .000119131132394303 .0155 -.000
672742515023644 612277955502719e-19 .0155 -.000762716880757455 -2187797810387065
e-21 .0155 -.000847809989886839 -725656771446248e-19 .0155 -.000925764905470839
 -.0001487877156732734 .0155 -.00099675920574839 -.0002300225651278295 .0155 -.0
01061898518409124 -.0003185596643755275 .0155 -.001118562194297818 -.00041231335
51656685 .0155 -.00116924887537998 -.000512659026349527 .0155 -.0012122647667187
54 -.000582471722189676 .0155 -.001235143629480032 -.000617950691097746 .0155 -.
001246770718948372 127 17 760 4 1 1 1 1 1 1 1 1 1 1 1 1 1 1 1 4 128 17 761 0 .07
01511759972784 .1378126061901916 .203226247181394 .267174055294474 .330024003408
179 .3917942717866855 .453084398997141 .514333907645878 .574999992818269 .634865
482622213 .694116315189642 .753441621780438 .813125800303612 .874079685637075 .9
36007013274407 1 83 3 607 .792156862745098 .819607843137255 .933333333333333 83
 3 602 .792156862745098 .819607843137255 .933333333333333 15 23 1025 0 21 593 0
 83 3 597 .792156862745098 .819607843137255 .933333333333333 15 594 1021 0 762 5
86 0 17 762 0 594 136 120 121 189 187 0 26 -17 136 0 594 178 762 134 25 198 0 16
3 -17 120 0 594 762 178 118 133 196 0 763 +17 189 0 394 190 26 118 762 187 0 0 +
17 26 0 394 189 147 121 21 27 0 0 +17 147 0 394 26 149 10 142 148 0 0 +17 149 0
 394 147 171 123 151 183 0 0 +17 171 0 394 149 190 111 764 169 0 0 +17 151 0 150
 127 125 111 149 183 0 171 -17 190 0 394 171 189 115 763 172 0 0 +17 764 0 579 1
30 113 115 171 169 0 190 -15 579 1013 0 764 412 0 17 130 0 579 162 764 128 117 1
94 0 181 -17 113 0 579 764 162 111 127 168 0 151 +17 162 0 579 113 130 94 160 15
4 0 0 +17 160 0 156 765 157 128 162 154 0 0 -17 765 0 156 163 160 131 181 179 0
 178 -17 163 0 156 158 765 134 178 176 0 164 -17 181 0 587 117 133 128 765 179 0
 160 +17 178 0 594 120 136 131 163 176 0 0 +15 587 1017 0 763 578 0 17 117 0 587
 763 181 115 130 194 0 764 +17 133 0 587 181 763 131 120 196 0 765 -17 763 0 587
 133 117 118 190 172 0 189 -17 164 0 23 25 24 134 158 165 0 0 +17 25 0 23 21 164
 121 136 198 0 762 +17 24 0 23 164 21 137 28 153 0 158 -17 28 0 140 142 141 10 2
4 153 0 147 +83 3 590 .792156862745098 .819607843137255 .933333333333333 83 3 58
3 .792156862745098 .819607843137255 .933333333333333 83 3 574 .792156862745098 .
819607843137255 .933333333333333 83 3 568 .792156862745098 .819607843137255 .933
333333333333 83 3 563 .792156862745098 .819607843137255 .933333333333333 83 3 55
5 .792156862745098 .819607843137255 .933333333333333 15 552 792 0 766 245 0 17 7
66 0 552 67 50 51 284 277 0 276 -17 67 0 552 767 766 65 53 302 0 768 -17 50 0 55
2 766 767 48 64 300 0 769 +17 284 0 403 292 276 48 766 277 0 0 +17 276 0 403 284
 34 51 770 272 0 0 +15 403 628 0 292 12 771 17 34 0 403 276 270 54 29 35 0 0 +17
 770 0 468 70 53 54 276 272 0 34 -15 468 796 0 770 464 0 17 70 0 468 460 770 68
 33 304 0 772 -17 53 0 468 770 460 51 67 302 0 766 +17 460 0 468 53 70 65 772 45
6 0 0 +17 772 0 240 773 768 68 460 456 0 455 -15 240 775 0 774 236 750 17 773 0
 240 775 772 71 455 454 0 453 -17 768 0 240 772 776 65 767 256 0 460 -17 455 0 3
1 33 32 68 773 454 0 0 +15 31 800 0 29 467 0 17 33 0 31 29 455 54 70 304 0 770 +
17 32 0 31 455 29 71 36 306 0 773 -17 36 0 473 777 453 22 32 306 0 270 +15 473 8
04 0 777 234 0 17 777 0 473 74 36 56 270 267 0 266 -17 453 0 473 36 74 71 775 45
1 0 0 +17 270 0 403 34 266 22 777 267 0 0 +17 266 0 403 270 292 56 778 261 0 0 +
17 292 0 403 266 284 44 769 285 0 0 +17 778 0 475 61 58 44 266 261 0 292 -15 475
 784 0 778 239 0 17 61 0 475 450 778 43 46 294 0 774 -17 58 0 475 778 450 56 74
 255 0 777 +17 450 0 475 58 61 47 774 293 0 0 +17 74 0 473 453 777 47 58 255 0 7
75 -17 775 0 240 774 773 47 453 451 0 450 -17 774 0 240 776 775 43 450 293 0 254
 -17 776 0 240 768 774 62 254 249 0 0 -17 254 0 246 46 64 43 776 249 0 0 +15 246
 788 0 769 241 0 17 46 0 246 769 254 44 61 294 0 778 +17 64 0 246 254 769 62 50
 300 0 767 -17 769 0 246 64 46 48 292 285 0 284 -17 767 0 552 50 67 62 768 256 0
 776 +16 256 703 0 ?767 249 456 248 0 0 1 15 771 470 0 349 12 0 17 349 0 771 349
 349 0 779 347 0 0 +17 779 0 526 779 779 0 349 347 0 0 -15 526 482 0 779 522 780
 15 780 483 0 781 522 0 17 781 0 780 781 781 0 346 344 0 0 -17 346 0 523 346 346
 0 781 344 0 0 +15 523 464 0 346 518 782 15 782 451 0 489 518 0 17 489 0 782 489
 489 0 343 341 0 0 -83 3 548 .792156862745098 .819607843137255 .933333333333333
 82 1 542 18612385 83 3 541 .792156862745098 .819607843137255 .933333333333333 7
9 14 537 SWEntUnchanged15 519 410 0 783 495 784 17 783 0 519 783 783 0 340 338 0
 0 -15 784 411 0 785 495 0 17 785 0 784 785 785 0 325 323 0 0 -17 325 0 786 325
 325 0 785 323 0 0 +15 786 326 0 325 502 0 17 340 0 503 340 340 0 783 338 0 0 +1
5 509 332 0 328 502 786 17 328 0 509 328 328 0 787 326 0 0 +17 787 0 484 787 787
 0 328 326 0 0 -15 484 371 0 787 478 700 82 1 507 -11468641 50 405 180 0 388 395
 390 0 +-.00922 .0047 0 0 1 0 0 0 1 51 390 181 0 381 405 383 0 +0 0 0 0 -1 0 .00
922 0 0 -1 82 1 482 -19136352 136 432 3 11 3 9 6 FFF1 788 789 790 135 433 2 0 45
 33 788 -.000617950691097746 .0145 -.001246770718948372 -.000647301837469414 .01
45 -.001254887146819688 -.000709710427750854 .0145 -.001272144899384296 -.000811
549891776358 .0145 -.001290970271905932 -.000926165041205761 .0145 -.00130757477
0922784 -.001054064742319458 .0145 -.001321632810270036 -.001195103201415124 .01
45 -.001331720131612012 -.00134938888940054 .0145 -.001339291446219376 -.0015169
8849396817 .0145 -.001344398078701754 -.001633171027821235 .0145 -.0013447467859
04932 -.00169347152443108 .0145 -.001344927770230422 127 9 789 4 1 1 1 1 1 1 1 4
 128 9 790 0 .0843186169585818 .1792845142139035 .286582527646561 .4051114834342
785 .535592873418974 .678190209993413 .832975839760488 1 82 1 411 -17956700 82 1
 399 137756836 82 1 387 -15597410 141 258 242 258 258 248 136 259 3 19 3 17 6 FF
F1 791 792 793 135 260 2 0 45 57 791 -.000436360146225951 .0155 -.00157770020612
786 -.00039586540691855 .0155 -.001562269500483985 -.000315794214634671 .0155 -.
00153175800640306 -.000201787092067326 .0155 -.001474201705069794 -9446172910067
58e-19 .0155 -.001408988603320438 675741577234175e-20 .0155 -.001336032740627592
 995582421754732e-19 .0155 -.00125326839214654 .000187566138911049 .0155 -.00116
4211306520556 .0002671808627141155 .0155 -.001065622966306118 .00034008915874425
85 .0155 -.000959547978321617 .000405824818197473 .0155 -.000847235926103472 .00
0462963976057009 .0155 -.000728900817409482 .000510417969393157 .0155 -.00060514
3609349297 .000549811195989604 .0155 -.000476308461358272 .000580857653529765 .0
155 -.0003421120835465275 .000602039585230176 .0155 -.0002023982174860555 .00061
6010575100302 .0155 -577190280924464e-19 .000617414626414889 .0155 4045543563919
15e-19 .000618127033261229 .0155 902685438721417e-19 127 17 792 4 1 1 1 1 1 1 1
 1 1 1 1 1 1 1 1 4 128 17 793 0 .0615449660163235 .121694296402031 .181154855452
633 .2398753889119565 .298701942450429 .357647423709201 .4176048428493665 .47849
4040728291 .540407050637133 .602344993872803 .665004327923234 .728559308823376 .
793650542026886 .860534267590267 .929235960561964 1 141 213 221 213 213 207 136
 214 3 19 3 17 6 FFF1 794 795 796 135 215 2 0 45 57 794 -.000537321684687489 .01
55 .001348081043872142 -.000505373322610416 .0155 .001336829485629406 -.00044223
9684426441 .0155 .001314595112380816 -.0003513585992221375 .0155 .00127403745119
3286 -.000266601594564368 .0155 .00122599538144374 -.00018649156927822 .0155 .00
1172593107460632 -.000112164913847165 .0155 .001111947105443702 -427407975398234
5e-20 .0155 .001045376116639736 216410038203023e-19 .0155 .000972541341567938 80
3153118111874e-19 .0155 .000893533180005084 .000132823615844472 .0155 .000808843
384364651 .000178294845253338 .0155 .000719304550692574 .0002181463768447575 .01
55 .000625897740472663 .0002494249694609275 .0155 .000527188581818986 .000273940
55363428 .0155 .00042405952340301 .000291305241594076 .0155 .0003165033101413905
 .000302119966053898 .0155 .000204540028284935 .000303381413992544 .0155 .000128
3879040177564 .0003040244691586645 .0155 895674220772699e-19 127 17 795 4 1 1 1
 1 1 1 1 1 1 1 1 1 1 1 1 4 128 17 796 0 .0624145002632777 .1233382314733142 .183
1245376921935 .2417829946389435 .3005788825509775 .359680074896626 .418881640850
047 .479530664457783 .540850535760039 .60230339589838 .664463211946473 .72780572
2667012 .792894814781235 .859672328302832 .928464400733489 1 19 13 94 0 1 0 8 4
 S0 74 4 CI16 index_map_offset0 0 1 dCCZ20 11 2 0 0 621 606 0 0 0 0 0 0 0 0 0 0
 0 0 0 0 0 0 0 0 1 0 
