**ABCDEFGHIJKLMNOPQRSTUVWXYZabcdefghijklmnopqrstuvwxyz**************************
**PARASOLID !"#$%&'()*+,-./:;<=>?@[\]^_`{|}~0123456789**************************
**PART1;
MC=AMD64;
MC_MODEL=Intel64 Family 6 Model 94 Stepping 3, GenuineIntel;
MC_ID=unknown;
OS=Windows_NT;
OS_RELEASE=unknown;
FRU=Parasolid Version 28.0, build 204, 11- 9-2015;
APPL=SOLIDWORKS 2016-2016040;
SITE=;
USER=unknown;
FORMAT=text;
GUISE=transmit;
KEY=snapon_2;
FILE=snapon_2.x_t;
DATE=Sun Jan 15 17:54:23 2017;
**PART2;
SCH=SCH_2800204_28002;
USFLD_SIZE=0;
**PART3;
**END_OF_HEADER*****************************************************************
T51 : TRANSMIT FILE created by modeller version 280020423 SCH_2800204_28002_1300
6200 0 12 30 CCCCCCCCCCCCCDI5 owner1040 0 CCCCCCCCCA13 boundary_mesh1006 0 A16 i
ndex_map_offset0 0 1 dA9 index_map82 0 A17 node_id_index_map82 0 A20 schema_embe
dding_map82 0 A5 child12 0 A14 lowest_node_id0 0 1 dZ1 6642 0 2 0 0 0 0 1e3 1e-8
 0 3 0 1 0 1 1 4 5 6 7 8 9 10 0 0 0 0 0 0 0 70 11 CI9 list_type0 0 1 uI10 notran
smit0 0 1 lCCCDCCDI12 finger_index0 0 1 dI12 finger_block1012 0 CZ2 0 4 T1 0 0 2
 20 1 11 11 13 255 4 29 0 1 0 12 0 0 13 0 54 255 5 1524 0 14 15 0 0 +.01125 .003
 .01125 0 -1 0 .00662323334328694 .002 0 0 -1 38 255 6 2056 0 9 16 0 0 +17 18 19
 20 21 29 255 7 2053 0 10 22 0 -.001499999999999982 .0219868780721898 -.00498291
778379626 19 8 CCCCCCCA5 owner12 0 Z8 7 0 1 13 0 23 V0 16 255 9 2054 0 ?24 0 25
 6 0 0 1 18 255 10 2051 0 26 0 27 7 ?1 17 255 26 0 28 29 30 10 31 32 0 24 -18 27
 1440 0 33 10 34 22 ?1 17 33 0 35 36 37 27 38 39 0 40 +18 34 1432 0 41 27 42 43
 ?1 29 22 1442 0 27 43 7 -.01125 .003 .00662676665671303 29 43 1434 0 34 44 22 -
.00662676665671303 .003 .01125 29 44 1426 0 42 45 43 .00662676665671303 .003 .01
125 18 42 1424 0 46 34 47 44 ?1 29 45 1418 0 47 48 44 .01125 .003 .0066267666567
1306 18 47 1416 0 49 42 50 45 ?1 29 48 1410 0 50 51 45 .01125 .003 -.00662676665
67131 18 50 1408 0 52 47 53 48 ?1 29 51 1402 0 53 54 48 .00662676665671303 .003
 -.01125 18 53 1400 0 55 50 56 51 ?1 29 54 1394 0 56 57 51 -.00662676665671303 .
003 -.01125 18 56 1392 0 58 53 59 54 ?1 29 57 1391 0 59 60 54 -.01125 .003 -.006
62676665671306 18 59 1389 0 61 56 62 57 ?1 29 60 1382 0 62 63 57 -.0046267666567
1303 .005 -.01125 18 62 1380 0 64 59 65 60 ?1 29 63 1378 0 65 66 60 .00462676665
671303 .005 -.01125 18 65 1376 0 67 62 68 63 ?1 29 66 1374 0 68 69 63 .01125 .00
5 -.0046267666567131 18 68 1372 0 70 65 71 66 ?1 29 69 1370 0 71 72 66 .01125 .0
05 .00462676665671306 18 71 1368 0 73 68 74 69 ?1 29 72 1366 0 74 75 69 .0046267
6665671303 .005 .01125 18 74 1364 0 76 71 77 72 ?1 29 75 1362 0 77 78 72 -.01125
 .005 -.0046267666567131 18 77 1360 0 79 74 80 75 ?1 29 78 1358 0 80 81 75 -.004
62676665671303 .005 .01125 18 80 1356 0 82 77 83 78 ?1 29 81 1355 0 83 84 78 -.0
1125 .005 .00462676665671306 18 83 1353 0 85 80 86 81 ?1 29 84 1122 0 86 87 81 .
001500000000000055 .005 -.01555992951049085 18 86 1120 0 88 83 89 84 ?1 29 87 11
18 0 89 90 84 -.001499999999999948 .005 -.01555992951049085 18 89 1116 0 91 86 9
2 87 ?1 29 90 1071 0 92 93 87 .0015 .0138150382221791 -.00157194298185692 18 92
 1069 0 94 89 95 90 ?1 29 93 1065 0 95 96 90 .00150000000000003 .005 -.008840180
35278368 18 95 1063 0 97 92 98 93 ?1 29 96 1062 0 98 99 93 -.00149999999999997 .
005 -.00884018035278369 18 98 1060 0 100 95 101 96 ?1 29 99 906 0 101 102 96 .00
15 .005 .01555992951049085 18 101 904 0 103 98 104 99 ?1 29 102 902 0 104 105 99
 -.00150000000000005 .005 .01555992951049085 18 104 900 0 106 101 107 102 ?1 29
 105 855 0 107 108 102 -.0015 .0138150382221791 .00157194298185692 18 107 853 0
 109 104 110 105 ?1 29 108 852 0 110 111 105 .0015 .0138150382221791 .0015719429
8185693 18 110 850 0 112 107 113 108 ?1 29 111 846 0 113 114 108 .00149999999999
997 .005 .00884018035278369 18 113 844 0 115 110 116 111 ?1 29 114 676 0 116 117
 111 .01555992951049085 .005 .0015 18 116 674 0 118 113 119 114 ?1 29 117 672 0
 119 120 114 .01555992951049085 .005 -.0015 18 119 670 0 121 116 122 117 ?1 29 1
20 625 0 122 123 117 .00884018035278369 .005 .0015 18 122 623 0 124 119 125 120
 ?1 29 123 622 0 125 126 120 .00884018035278369 .005 -.0015 18 125 620 0 127 122
 128 123 ?1 29 126 619 0 128 129 123 .001571942981856925 .0138150382221791 .0015
 18 128 617 0 130 125 131 126 ?1 29 129 448 0 131 132 126 -.01555992951049085 .0
05 .0015 18 131 446 0 133 128 134 129 ?1 29 132 444 0 134 135 129 -.015559929510
49085 .005 -.0015 18 134 442 0 136 131 137 132 ?1 29 135 401 0 137 138 132 -.008
84018035278369 .005 .0015 18 137 400 0 139 134 140 135 ?1 29 138 399 0 140 141 1
35 -.001571942981856925 .0138150382221791 -.0015 18 140 397 0 142 137 143 138 ?1
 29 141 396 0 143 144 138 -.001571942981856925 .0138150382221791 .0015 18 143 39
5 0 145 140 146 141 ?1 29 144 204 0 146 147 141 .00662676665671303 0 -.01125 18
 146 116 0 148 143 149 144 ?1 29 147 205 0 149 150 144 .01125 0 -.00662676665671
31 18 149 115 0 151 146 152 147 ?1 29 150 206 0 152 153 147 .01125 0 .0066267666
5671306 18 152 114 0 154 149 155 150 ?1 29 153 207 0 155 156 150 .00662676665671
303 0 .01125 18 155 113 0 157 152 158 153 ?1 29 156 208 0 158 159 153 -.00662676
665671303 0 .01125 18 158 112 0 160 155 161 156 ?1 29 159 209 0 161 162 156 -.01
125 0 .00662676665671303 18 161 111 0 36 158 163 159 ?1 29 162 210 0 163 164 159
 -.01125 0 -.00662676665671306 18 163 109 0 165 161 166 162 ?1 29 164 211 0 166
 167 162 -.00662676665671303 0 -.01125 18 166 124 0 168 163 169 164 ?1 29 167 58
8 0 169 170 164 -.00884018035278369 .005 -.0015 18 169 507 0 171 166 172 167 ?1
 29 170 815 0 172 173 167 .001571942981857455 .01381503822217876 -.0015 18 172 7
38 0 174 169 175 170 ?1 29 173 1046 0 175 176 170 -.00150000000000003 .005 .0088
4018035278368 18 175 965 0 177 172 178 173 ?1 29 176 1261 0 178 179 173 -.0015 .
0138150382221791 -.00157194298185693 18 178 1184 0 180 175 181 176 ?1 29 179 225
2 0 181 182 176 .0015 .0181845327912233 .00157194298185693 18 181 2202 0 183 178
 184 179 ?1 29 182 2253 0 184 185 179 .00157194298185692 .0181845327912233 .0015
 18 184 2203 0 186 181 187 182 ?1 29 185 2254 0 187 188 182 .001499999999999982
 .0219868780721898 .00498291778379626 18 187 2211 0 189 184 190 185 ?1 29 188 22
55 0 190 191 185 -.0015 .0219868780721898 .00498291778379625 18 190 2212 0 192 1
87 193 188 ?1 29 191 2256 0 193 194 188 -.0015 .0181845327912233 .00157194298185
692 18 193 2213 0 195 190 196 191 ?1 29 194 2257 0 196 197 191 -.001571942981858
505 .0181845327912242 .0015 18 196 2214 0 198 193 199 194 ?1 29 197 2258 0 199 2
00 194 .00498291778379626 .0219868780721898 .0015 18 199 2204 0 201 196 202 197
 ?1 29 200 2259 0 202 203 197 .00498291778379626 .0219868780721898 -.0015 18 202
 2205 0 204 199 205 200 ?1 29 203 2260 0 205 206 200 .00157194298185705 .0181845
327912233 -.001499999999999868 18 205 2206 0 207 202 208 203 ?1 29 206 2261 0 20
8 209 203 -.00498291778379626 .0219868780721898 .0015 18 208 2215 0 210 205 211
 206 ?1 29 209 2262 0 211 212 206 -.00498291778379626 .0219868780721898 -.0015 1
8 211 2216 0 213 208 214 209 ?1 29 212 2263 0 214 215 209 .0015 .018184532791223
3 -.001571942981856915 18 214 2207 0 216 211 217 212 ?1 29 215 2264 0 217 218 21
2 -.001571942981856925 .0181845327912233 -.0015 18 217 2217 0 219 214 220 215 ?1
 29 218 2265 0 220 221 215 .0015 .0219868780721898 -.00498291778379625 18 220 22
08 0 30 217 222 218 ?1 29 221 2267 0 222 0 218 -.0015 .0181845327912233 -.001571
942981856925 18 222 2218 0 29 220 0 221 ?1 17 29 0 28 219 26 222 24 9 0 223 -15
 255 28 2223 0 189 224 0 17 219 0 28 213 29 217 223 225 0 226 -17 24 0 227 91 22
8 10 29 9 0 229 +17 223 0 230 231 232 222 219 225 0 228 +15 230 1092 0 232 233 0
 17 231 0 230 234 223 178 228 235 0 236 -17 232 0 230 223 234 217 142 237 0 0 -1
6 225 2195 0 ?223 238 32 239 0 0 1 17 228 0 227 24 236 222 231 235 0 0 +15 227 1
232 0 228 240 0 17 236 0 227 228 241 178 100 242 0 0 +16 235 1168 0 ?228 243 244
 245 0 0 1 16 243 1140 0 ?246 247 235 248 0 0 1 16 244 1166 0 ?249 235 250 251 0
 0 1 30 255 245 1244 0 235 251 248 0 --.0015 .005 -.001571942981856925 0 -1 0 30
 251 1247 0 244 252 245 0 +.001500000000000055 .005 -.01555992951049085 -1 0 -33
3066907387547e-29 30 248 1243 0 243 245 253 0 -.0015 .005 -.001571942981856915 0
 -1 0 30 253 1039 0 254 248 255 0 +.0015 .0265 .00217278732005902 -1877852197942
195e-30 -.848890713006826 .528568403681834 16 254 2091 0 ?103 256 257 253 0 0 1
 30 255 1038 0 256 253 258 0 +.001499999999999944 .005 .01555992951049085 355271
36788005e-28 0 -1 16 256 957 0 ?259 260 254 255 0 0 1 30 258 1035 0 247 255 261
 0 +-.0015 .0265 .00217278732005901 -1877852197942195e-30 -.848890713006826 .528
568403681834 16 247 2080 0 ?106 257 243 258 0 0 1 30 261 1034 0 257 258 262 0 +-
.001500000000000055 .005 .01555992951049085 35527136788005e-28 0 -1 16 257 944 0
 ?263 254 247 261 0 0 1 30 262 1030 0 260 261 264 0 +.001499999999999944 .005 .0
1555992951049085 -1 0 -333066907387547e-29 16 260 943 0 ?265 266 256 262 0 0 1 3
0 264 1028 0 266 262 267 0 +-.0015 .005 .001571942981856915 0 -1 0 16 266 2077 0
 ?109 268 260 264 0 0 1 30 267 1027 0 268 264 269 0 +.0015 .005 .001571942981856
925 0 -1 0 16 268 2088 0 ?112 270 266 267 0 0 1 30 269 808 0 271 267 272 0 +.015
55992951049085 .005 .0015 -1 0 0 16 271 713 0 ?124 273 274 269 0 0 1 30 272 807
 0 273 269 275 0 +.002172787320059015 .0265 .0015 .528568403681834 -.84889071300
6826 0 16 273 2118 0 ?118 276 271 272 0 0 1 30 275 804 0 270 272 277 0 +.0155599
2951049085 .005 -.0015 -1 0 0 16 270 729 0 ?278 274 268 275 0 0 1 30 277 803 0 2
74 275 279 0 +.002172787320059015 .0265 -.0015 .528568403681834 -.84889071300682
6 0 16 274 2107 0 ?121 271 270 277 0 0 1 30 279 801 0 276 277 280 0 +.0155599295
1049085 .005 .0015 0 0 -1 16 276 720 0 ?281 282 273 279 0 0 1 30 280 798 0 282 2
79 283 0 -.00157194298185692 .005 -.0015 0 -1 0 16 282 722 0 ?284 285 276 280 0
 0 1 30 283 797 0 285 280 286 0 -.00157194298185692 .005 .0015 0 -1 0 16 285 694
 0 ?287 288 282 283 0 0 1 30 286 581 0 289 283 290 0 +-.002172787320059015 .0265
 .0015 -.528568403681834 -.848890713006826 0 16 289 2145 0 ?133 291 292 286 0 0
 1 30 290 580 0 291 286 293 0 +-.01555992951049085 .005 .0015 1 0 0 16 291 499 0
 ?294 295 289 290 0 0 1 30 293 577 0 288 290 296 0 +-.002172787320059015 .0265 -
.0015 -.528568403681834 -.848890713006826 0 16 288 2134 0 ?136 292 285 293 0 0 1
 30 296 576 0 292 293 297 0 +-.01555992951049085 .005 -.0015 1 0 0 16 292 486 0
 ?298 289 288 296 0 0 1 30 297 572 0 295 296 299 0 +-.01555992951049085 .005 .00
15 0 0 -1 16 295 485 0 ?300 237 291 297 0 0 1 30 299 570 0 237 297 301 0 +-.0015
7194298185692 .005 -.0015 0 -1 0 16 237 2131 0 ?142 302 295 299 0 0 1 30 301 569
 0 302 299 303 0 +-.00157194298185692 .005 .0015 0 -1 0 16 302 2142 0 ?145 304 2
37 301 0 0 1 31 255 303 378 0 305 301 306 0 +0 .005 0 0 -1 0 0 0 -1 .00896653716
156592 16 305 403 0 ?307 308 309 303 309 310 1 31 306 377 0 311 303 312 0 +0 .01
38150382221791 0 0 -1 0 0 0 -1 .002172787320059015 16 311 398 0 ?180 313 314 306
 314 315 1 31 312 375 0 313 306 316 0 +0 .0265 0 0 -1 0 0 0 -1 .009 16 313 340 0
 ?317 318 311 312 0 0 1 31 316 374 0 318 312 319 0 +0 .03 0 0 -1 0 0 0 -1 .009 1
6 318 339 0 ?320 321 313 316 0 0 1 31 319 195 0 321 316 322 0 +0 0 -.01125 0 1 0
 0 0 -1 .00662676665671303 16 321 52 0 ?323 324 318 319 0 0 1 31 322 194 0 324 3
19 325 0 +-.01125 0 -.01125 0 -1 0 0 0 1 .00462323334328694 16 324 56 0 ?326 327
 321 322 0 0 1 31 325 193 0 327 322 328 0 +-.01125 0 -3642919299551295e-32 0 1 0
 0 0 1 .00662676665671306 16 327 60 0 ?329 330 324 325 0 0 1 31 328 192 0 330 32
5 331 0 +-.01125 0 .01125 0 -1 0 0 0 -1 .00462323334328694 16 330 64 0 ?332 333
 327 328 0 0 1 31 331 191 0 333 328 334 0 +0 0 .01125 0 1 0 0 0 1 .0066267666567
1303 16 333 68 0 ?335 336 330 331 0 0 1 31 334 190 0 336 331 337 0 +.01125 0 .01
125 0 -1 0 0 0 1 .00462323334328694 16 336 72 0 ?338 339 333 334 0 0 1 31 337 18
9 0 339 334 340 0 +.01125 0 -3642919299551295e-32 0 1 0 0 0 -1 .0066267666567130
6 16 339 76 0 ?341 342 336 337 0 0 1 31 340 188 0 342 337 343 0 +.01125 0 -.0112
5 0 -1 0 0 0 -1 .00462323334328694 16 342 80 0 ?344 345 339 340 0 0 1 30 343 187
 0 345 340 346 0 +.00662676665671303 .005 -.01125 0 -1 0 16 345 1401 0 ?148 347
 342 343 0 0 1 30 346 186 0 347 343 348 0 +.01125 .005 -.0066267666567131 0 -1 0
 16 347 1409 0 ?151 349 345 346 0 0 1 30 348 185 0 349 346 350 0 +.01125 .005 .0
0662676665671306 0 -1 0 16 349 1417 0 ?154 351 347 348 0 0 1 30 350 184 0 351 34
8 352 0 +.00662676665671303 .005 .01125 0 -1 0 16 351 1425 0 ?157 353 349 350 0
 0 1 30 352 183 0 353 350 354 0 +-.00662676665671303 .005 .01125 0 -1 0 16 353 1
433 0 ?160 355 351 352 0 0 1 30 354 182 0 355 352 356 0 +-.01125 .005 .006626766
65671303 0 -1 0 16 355 1441 0 ?36 357 353 354 0 0 1 30 356 181 0 357 354 358 0 +
-.01125 .005 -.00662676665671306 0 -1 0 16 357 1390 0 ?165 359 355 356 0 0 1 30
 358 180 0 359 356 360 0 +-.00662676665671303 .005 -.01125 0 -1 0 16 359 1393 0
 ?168 361 357 358 0 0 1 38 360 406 0 361 358 362 0 +363 364 365 366 367 16 361 4
05 0 ?368 369 359 360 0 0 1 38 362 409 0 369 360 370 0 +363 371 372 373 374 52 2
55 363 372 0 375 376 377 378 +0 .005 0 0 -1 0 .00896653716156592 .61044160573868
7 .792061264034022 0 0 -1 50 255 364 565 0 379 371 376 380 +0 0 -.0015 0 0 -1 -1
 0 0 40 255 9 365 0 1 9 .0014092972140735 .3817119250973585 ??.00754455732916724
 .00665344607968257 -.0015 .001398488687171872 .01397332259740782 -.0015 .000591
953557252112 .0145419215167676 -.0015 .000161570834236107 .01467673630768426 -.0
015 -.000292790487510888 .01465126376767222 -.0015 -.000804535370457709 .0144257
1466169832 -.0015 -.002474205040337485 .0128800439558324 -.0015 -.00810504612159
461 .00593922048986642 -.0015 -.01470481985897106 -.00254455732916724 -.0015 41
 3 CI8 term_use0 0 1 cCZ1 366 L?.00754455732916724 .00665344607968257 -.0015 41
 1 367 L?-.01470481985897106 -.00254455732916724 -.0015 14 255 379 2138 381 ?382
 383 384 4 364 +0 0 382 383 23 50 371 566 0 383 385 364 386 +0 0 .0015 0 0 -1 -1
 0 0 50 376 562 0 387 364 363 388 +-.002172787320059015 .0265 .0015 .84889071300
6826 -.528568403681834 0 .528568403681834 .848890713006826 0 141 255 380 360 389
 389 364 141 389 390 380 380 364 38 390 2247 0 391 392 393 0 +364 18 394 395 396
 16 391 2194 0 ?226 397 238 390 0 0 1 38 392 2248 0 238 239 390 0 +398 18 399 40
0 401 38 393 2246 0 397 390 402 0 +376 18 403 404 405 52 18 2235 0 224 0 406 407
 -0 .0265 0 0 1 0 .00880138964655104 .623331056321285 .781958051448664 0 0 1 40
 10 394 0 1 10 .000673188617232952 .3406649587135765 ??-.0150390706756777 .03441
867272994035 -.0015 -.00327830155789314 .01998143394543965 -.0015 -.001340191981
15778 .01798219511154055 -.0015 -.00070979928403194 .01754057537519105 -.0015 -.
0002414220330788235 .0173647492262047 -.0015 .0001744317691469345 .0173532131343
912 -.0015 .000571516018381987 .01747249003966565 -.0015 .001478647049578934 .01
81010950441972 -.0015 .0047435625858127 .02169995617778745 -.0015 .0063467297480
8343 .0236400155317678 -.0015 41 1 395 L?-.0150390706756777 .03441867272994035 -
.0015 41 1 396 L?.00634672974808343 .0236400155317678 -.0015 14 224 2220 408 ?40
9 410 411 4 18 -0 0 409 410 23 51 255 406 2019 0 412 18 413 0 +.01125 -.01 37470
027081099e-30 0 1 0 .001830041123463015 0 0 1 141 407 6 414 415 18 141 414 416 4
17 407 18 141 415 418 407 419 18 38 418 2250 0 32 420 239 0 +421 18 422 423 424
 141 419 392 415 425 18 141 425 390 419 426 18 141 426 393 425 427 18 141 427 42
8 426 429 18 38 428 2244 0 430 402 431 0 +432 18 433 434 435 141 429 431 427 436
 18 38 431 2243 0 437 428 438 0 +385 18 439 440 441 141 436 438 429 442 18 38 43
8 2242 0 443 431 444 0 +371 18 445 446 447 141 442 448 436 449 18 38 448 2240 0
 450 444 451 0 +452 18 453 454 455 141 449 451 442 417 18 38 451 2239 0 456 448
 457 0 +458 18 459 460 461 141 417 457 449 414 18 38 457 2238 0 462 451 463 0 +4
64 18 465 466 467 16 462 2188 0 ?201 468 456 457 0 0 1 31 463 2237 0 468 457 416
 0 -0 .0181845327912233 0 0 1 0 0 0 1 .002172787320059015 50 464 794 0 469 458 4
32 470 +0 0 .0015 0 0 -1 1 0 0 40 9 465 0 1 9 .001957524202924075 .3322094250381
52 ??-.00634672974808343 .0236400155317678 .0015 -.000942046470521632 .017680855
41525865 .0015 -.000396908839913831 .01740529396168825 .0015 25943856860557e-18
 .01734081414678395 .0015 .0004466101425868445 .01742216852103915 .0015 .0010723
7664385209 .0177719576441139 .0015 .0032662935755715 .0199677402842871 .0015 .01
105399797105642 .0294529485158027 .0015 .0150390706756777 .03441867272994035 .00
15 41 1 466 L?-.00634672974808343 .0236400155317678 .0015 41 1 467 L?.0150390706
756777 .03441867272994035 .0015 14 469 2122 471 ?472 382 473 4 464 -0 0 472 382
 23 50 458 1020 0 474 452 464 475 +.0015 .0265 .00217278732005902 28273740449119
35e-30 -.528568403681834 -.848890713006826 0 .848890713006826 -.528568403681834
 50 432 793 0 472 464 385 476 +0 0 -.0015 0 0 -1 1 0 0 141 470 477 478 478 464 3
8 477 633 0 479 370 480 0 +363 464 481 482 483 141 478 457 470 470 464 16 479 63
1 0 ?130 484 485 477 0 0 1 38 370 628 0 485 362 477 0 +363 432 486 487 488 38 48
0 858 0 484 477 489 0 +363 452 490 491 492 40 10 481 0 1 10 .000627351432289934
 .3389281865610305 ??.01470481985897106 -.002544557329167245 .0015 .003346031476
723485 .0118764350242613 .0015 .0013693962814335 .013998919262774 .0015 .0007539
26297017357 .01445598382870706 .0015 .000283490263153006 .01465354017809726 .001
5 -.0001192612560416982 .01468185244059364 .0015 -.000508962339802654 .014579008
04176044 .0015 -.001170207923585292 .01416578270707352 .0015 -.00372302933242657
5 .0114262265197426 .0015 -.00754455732916725 .00665344607968257 .0015 41 1 482
 L?.01470481985897106 -.002544557329167245 .0015 41 1 483 L?-.00754455732916725
 .00665344607968257 .0015 16 484 856 0 ?493 494 479 480 0 0 1 38 489 863 0 494 4
80 495 0 +363 496 497 498 499 50 452 1023 0 500 496 458 501 +-.0015 0 -499600361
08132e-31 -1 0 -333066907387547e-29 -35527136788005e-28 0 1 40 8 490 0 1 8 .0022
8282925030761 .3993136965136785 ??-.001499999999999982 .00932292656967044 -.0054
3153950803655 -.0015 .0144917895981829 -.000690297848680123 -.0015 .014662012483
24992 -.000245914163895106 -.0015 .01467761148243032 .000155146360638605 -.0015
 .0145659529662186 .000539461576764657 -.0015 .0139963417764162 .001372340860153
642 -.0015 .01071978347813136 .00430442794072949 -.00150000000000005 -.001931539
508036545 .01422983372776322 41 1 491 L?-.001499999999999982 .00932292656967044
 -.00543153950803655 41 1 492 L?-.00150000000000005 -.001931539508036545 .014229
83372776322 14 500 2084 502 ?503 504 505 4 452 +0 0 503 504 23 50 496 1024 0 504
 421 452 506 +.0015 0 49960036108132e-31 -1 0 -333066907387547e-29 -355271367880
05e-28 0 1 141 501 480 507 507 452 141 507 448 501 501 452 14 504 2095 508 ?500
 474 509 4 496 -0 0 500 474 23 50 421 1238 0 503 17 496 510 +.0015 .0265 -.00217
278732005901 2827374044911935e-30 .528568403681834 -.848890713006826 0 .84889071
3006826 .528568403681834 141 506 489 511 511 496 141 511 416 506 506 496 38 416
 2236 0 512 463 513 0 +496 18 514 515 516 16 512 2187 0 ?183 517 468 416 0 0 1 3
1 513 2025 0 517 416 518 0 +.01125 -.01 37470027081099e-30 0 1 0 -1 0 -333066907
387547e-29 .001830041123463015 40 10 514 0 1 10 .000673188617232953 .34066495871
3577 ??.00149999999999995 .03441867272994035 .0150390706756777 .0015 .0199814339
4543965 .003278301557893145 .0015 .01798219511154055 .001340191981157784 .0015 .
01754057537519105 .000709799284031942 .0015 .0173647492262047 .00024142203307882
75 .0015 .0173532131343912 -.0001744317691469315 .0015 .01747249003966565 -.0005
71516018381983 .0015 .0181010950441972 -.00147864704957893 .0015 .02169995617778
745 -.00474356258581269 .0015 .0236400155317678 -.00634672974808343 41 1 515 L?.
00149999999999995 .03441867272994035 .0150390706756777 41 1 516 L?.0015 .0236400
155317678 -.00634672974808343 16 517 1991 0 ?519 520 512 513 0 0 1 31 518 1973 0
 521 513 522 0 +-.01125 -.01 -37470027081099e-30 0 -1 0 1 0 333066907387547e-29
 .001830041123463015 16 521 1943 0 ?523 524 520 518 0 0 1 31 522 1972 0 520 518
 525 0 +-.01125 0 -37470027081099e-30 0 -1 0 1 0 333066907387547e-29 .0018300411
23463015 16 520 1939 0 ?526 521 517 522 0 0 1 31 525 1911 0 524 522 527 0 +0 -.0
1 -.01125 0 1 0 0 0 1 .001830041123463015 16 524 1877 0 ?528 529 521 525 0 0 1 3
1 527 1851 0 530 525 531 0 +0 -.01 .01125 0 -1 0 0 0 -1 .001830041123463015 16 5
30 1821 0 ?532 533 529 527 0 0 1 31 531 1850 0 529 527 534 0 +0 0 .01125 0 -1 0
 0 0 -1 .001830041123463015 16 529 1817 0 ?535 530 524 531 0 0 1 31 534 1331 0 5
36 531 537 0 +0 -.001975918059281785 0 0 1 0 0 0 1 .00445702099721882 16 536 130
8 0 ?538 539 540 534 0 0 1 31 537 1330 0 539 534 541 0 +0 -.002654487895522905 0
 0 1 0 0 0 1 .00348440423193988 16 539 1307 0 ?542 543 536 537 0 0 1 30 541 1254
 0 544 537 545 0 +.001500000000000055 .005 -.01555992951049085 -35527136788005e-
28 0 1 16 544 1159 0 ?97 250 546 541 0 0 1 30 545 1253 0 250 541 547 0 +.0015 .0
265 -.00217278732005901 1877852197942195e-30 -.848890713006826 -.528568403681834
 16 250 2064 0 ?88 244 544 545 0 0 1 30 547 1250 0 543 545 252 0 +-.001499999999
999944 .005 -.01555992951049085 -35527136788005e-28 0 1 16 543 1175 0 ?241 546 5
39 547 0 0 1 30 252 1249 0 546 547 251 0 +-.0015 .0265 -.00217278732005902 18778
52197942195e-30 -.848890713006826 -.528568403681834 16 546 2052 0 ?91 544 543 25
2 0 0 1 17 91 0 227 241 24 89 229 546 0 548 +17 241 0 227 236 91 98 548 543 0 0
 +17 229 0 549 31 249 10 91 546 0 0 -17 548 0 550 551 307 89 241 543 0 249 -15 5
50 1125 0 97 552 0 17 551 0 550 97 548 86 249 244 0 553 -17 307 0 550 548 298 98
 171 305 0 241 +17 249 0 549 229 88 89 551 244 0 0 +15 549 1226 0 229 503 0 17 8
8 0 549 249 31 86 554 250 0 551 +17 31 0 549 88 229 220 26 32 0 554 +17 554 0 55
5 556 553 220 88 250 0 0 -15 555 2067 0 556 557 0 17 556 0 555 558 554 214 30 23
8 0 246 -17 553 0 555 554 559 86 97 544 0 0 -17 559 0 555 553 558 95 94 560 0 0
 -17 97 0 550 127 551 95 553 544 0 561 +17 127 0 550 562 97 125 561 309 0 563 +1
7 561 0 564 94 563 95 127 309 0 559 -15 564 627 0 561 565 0 17 94 0 564 174 561
 92 559 560 0 566 +17 563 0 564 561 174 125 567 485 0 278 -16 309 1064 0 ?127 30
5 310 303 304 305 1 16 310 624 0 ?568 309 304 303 305 304 1 16 304 848 0 ?139 31
0 302 303 310 309 1 17 139 0 550 569 263 137 177 304 0 570 +17 569 0 550 300 139
 131 294 291 0 571 -17 263 0 550 139 265 175 572 257 0 493 +17 177 0 573 574 570
 175 139 304 0 263 -17 570 0 573 177 575 137 576 369 0 294 +15 573 857 0 574 577
 0 17 575 0 573 570 574 143 578 308 0 576 +17 576 0 579 580 294 143 570 369 0 0
 -16 369 407 0 ?570 485 361 362 0 0 1 17 294 0 579 576 133 137 569 291 0 0 +15 5
79 2148 0 581 383 0 17 133 0 579 294 581 131 582 289 0 569 +17 581 0 579 133 580
 208 198 443 0 582 -17 582 0 583 584 571 208 133 289 0 0 -15 583 2153 0 584 387
 0 17 584 0 583 136 582 211 210 397 0 585 -17 571 0 583 582 136 131 300 295 0 0
 -17 136 0 583 571 584 134 585 288 0 300 +17 300 0 550 298 569 134 571 295 0 586
 +17 298 0 550 307 300 169 586 292 0 368 +17 586 0 384 585 368 134 298 292 0 0 -
15 384 558 0 585 379 0 17 585 0 384 226 586 211 136 288 0 0 -17 368 0 384 586 14
2 169 587 361 0 0 +17 142 0 384 368 226 140 232 237 0 587 +17 587 0 588 180 171
 140 368 361 0 234 -15 588 1073 0 100 375 0 17 180 0 588 100 587 178 234 311 0 2
31 +17 171 0 588 587 100 169 307 305 0 298 -17 234 0 230 232 231 140 180 311 0 0
 -17 100 0 588 171 180 98 236 242 0 307 -16 242 1072 0 ?236 560 494 495 0 0 1 16
 560 1077 0 ?94 589 242 590 0 0 1 16 494 861 0 ?115 242 484 489 0 0 1 38 495 107
4 0 242 489 590 0 +363 17 591 592 593 38 590 1079 0 560 495 594 0 +363 398 595 5
96 597 50 17 1239 0 240 398 421 598 +-.0015 0 -49960036108132e-31 -1 0 -33306690
7387547e-29 35527136788005e-28 0 -1 40 10 591 0 1 10 .000650597318601475 .340653
051906275 ??-.001499999999999952 -.001931539508036545 -.01422983372776324 -.0015
 .01202057439293316 -.00322390686264222 -.0015 .01406051118047374 -.001297949989
119034 -.0015 .01447654948294036 -.00071794007935968 -.0015 .01466103435555052 -
.0002505315620986885 -.0015 .01467802793059486 .000151995032095105 -.0015 .01456
6598608993 .000537989446458544 -.0015 .0139996813837301 .001368524955913784 -.00
15 .01073668594777182 .004290630498491865 -.0015 .00932292656967042 .00543153950
803655 41 1 592 L?-.001499999999999952 -.001931539508036545 -.01422983372776324
 41 1 593 L?-.0015 .00932292656967042 .00543153950803655 14 240 2057 599 ?552 55
7 227 4 17 +0 0 552 557 23 50 398 1240 0 557 600 17 601 +.0015 0 49960036108132e
-31 -1 0 -333066907387547e-29 35527136788005e-28 0 -1 141 598 495 602 602 17 141
 602 6 598 598 17 14 557 2068 603 ?240 503 555 4 398 -0 0 240 503 23 50 600 1326
 0 604 605 398 0 +0 -.002654487895522905 0 0 -1 0 0 0 -1 141 601 590 606 606 398
 141 606 392 601 601 398 14 604 1310 607 ?608 609 610 4 600 +0 0 608 609 23 54 6
05 1327 0 608 611 600 0 +0 -.00161816096228577 0 0 1 0 .00348440423193988 .00103
6326933237136 0 0 1 14 608 1313 612 ?613 604 614 4 605 +0 0 613 604 23 52 611 13
28 0 613 615 605 0 +0 0 0 0 1 0 .00518382186476084 .3452164423426695 .9385230993
0884 0 0 1 14 613 1317 616 ?14 608 617 4 611 +0 0 14 608 23 51 615 1845 0 618 61
9 611 0 -0 -.01 .01125 0 1 0 .001830041123463015 0 0 1 14 618 1830 620 ?621 622
 623 4 615 -0 0 621 622 23 51 619 1905 0 624 413 615 0 +0 -.01 -.01125 0 1 0 .00
1830041123463015 0 0 1 14 624 1890 625 ?626 621 627 4 619 +0 0 626 621 23 51 413
 1967 0 628 406 619 0 --.01125 -.01 -37470027081099e-30 0 1 0 .00183004112346301
5 0 0 1 14 628 1952 629 ?630 626 631 4 413 -0 0 630 626 23 81 255 1 629 6602 632
 628 633 0 625 634 635 14 630 234 634 ?412 628 636 4 637 -0 0 412 628 23 14 626
 261 638 ?628 624 639 4 640 -0 0 628 624 23 15 631 1955 0 641 628 642 13 23 8 0
 0 0 0 0 0 8 12 14 12 2174 643 ?644 0 645 4 377 +644 233 644 0 23 81 1 643 6605
 632 12 646 0 638 647 648 14 644 2169 647 ?649 12 650 4 377 +649 12 649 12 23 15
 645 646 0 246 12 0 51 377 371 0 12 363 651 0 +0 .005 0 0 -1 0 .0021727873200590
15 0 0 -1 14 233 2159 652 ?387 649 230 4 377 +12 649 387 649 23 81 1 652 6607 63
2 233 653 0 647 654 655 14 387 2154 654 ?383 233 583 4 376 -0 0 383 233 23 14 64
9 2164 656 ?233 644 657 4 377 +233 644 233 644 23 81 1 656 6609 632 649 658 0 65
4 659 660 15 657 876 0 661 649 0 17 661 0 657 662 578 193 109 266 0 0 -17 662 0
 657 145 661 196 195 663 0 580 +17 578 0 657 661 145 107 575 308 0 0 -17 109 0 5
05 493 664 107 661 266 0 574 +15 505 1016 0 665 500 0 17 493 0 505 572 109 175 5
74 484 0 0 +17 664 0 505 109 665 193 192 450 0 661 +17 574 0 573 575 177 107 493
 484 0 578 -17 665 0 505 664 572 190 106 247 0 0 -17 192 0 28 189 195 190 664 45
0 0 666 -16 450 2192 0 ?664 456 663 448 0 0 1 16 456 2186 0 ?189 462 450 451 0 0
 1 16 663 2193 0 ?662 450 443 444 0 0 1 16 443 2191 0 ?198 663 437 438 0 0 1 31
 444 2241 0 663 438 448 0 -0 .0181845327912233 0 0 1 0 0 0 1 .002172787320059015
 17 198 0 28 195 210 196 581 443 0 662 +16 437 2200 0 ?667 443 430 431 0 0 1 17
 667 0 668 118 669 199 204 437 0 670 +16 430 2199 0 ?671 437 672 428 0 0 1 17 67
1 0 673 121 284 202 207 430 0 669 +16 672 2198 0 ?674 430 397 402 0 0 1 17 674 0
 645 675 246 205 216 672 0 284 +16 397 2190 0 ?210 672 391 393 0 0 1 31 402 2245
 0 672 393 428 0 -0 .0181845327912233 0 0 1 0 0 0 1 .002172787320059015 17 210 0
 28 198 213 208 584 397 0 581 +17 213 0 28 210 219 211 226 391 0 584 -17 226 0 3
84 142 585 217 213 391 0 232 +17 675 0 645 566 674 172 284 282 0 567 -17 246 0 6
45 674 566 214 558 243 0 0 +17 216 0 28 30 207 214 674 672 0 556 -17 284 0 673 6
71 567 205 675 282 0 0 +15 673 786 0 284 472 0 17 567 0 673 284 278 172 563 485
 0 0 +17 278 0 673 567 121 125 562 270 0 0 +16 485 626 0 ?567 479 369 370 0 0 1
 17 121 0 673 278 671 119 669 274 0 562 +17 562 0 550 676 127 119 278 270 0 281
 -17 676 0 550 124 562 116 281 276 0 677 -17 281 0 668 669 118 119 676 276 0 0 +
15 668 780 0 669 382 0 17 669 0 668 667 281 202 121 274 0 0 -17 118 0 668 281 66
7 116 670 273 0 676 +17 670 0 473 678 677 199 118 273 0 0 -15 473 2121 0 678 469
 0 17 678 0 473 679 670 184 201 462 0 287 -17 677 0 473 670 680 116 124 271 0 0
 -17 680 0 473 677 679 122 130 479 0 0 -17 124 0 550 568 676 122 677 271 0 681 +
17 568 0 550 682 124 113 681 310 0 259 +17 681 0 683 130 115 122 568 310 0 680 -
15 683 361 0 684 685 0 17 130 0 683 684 681 128 680 479 0 686 +17 115 0 683 681
 684 113 687 494 0 568 +17 684 0 683 115 130 110 686 315 0 687 +17 687 0 509 688
 259 110 115 494 0 0 -15 509 2094 0 689 504 0 17 688 0 509 689 687 181 112 268 0
 0 -17 259 0 509 687 103 113 682 256 0 0 +17 103 0 509 259 689 101 690 254 0 682
 +17 682 0 550 265 568 101 259 256 0 691 -17 265 0 550 263 682 104 691 260 0 572
 +17 691 0 692 690 106 101 265 260 0 0 -15 692 2099 0 666 474 0 17 690 0 692 666
 691 187 103 254 0 0 -17 106 0 692 691 666 104 665 247 0 265 +17 666 0 692 106 6
90 190 189 456 0 665 -17 189 0 28 183 192 187 666 456 0 689 +17 183 0 28 186 189
 181 689 512 0 693 +17 689 0 509 103 688 187 183 512 0 690 -17 186 0 28 201 183
 184 693 468 0 678 -17 693 0 650 112 287 181 186 468 0 688 +15 650 357 0 287 644
 0 17 112 0 650 686 693 110 688 268 0 684 +17 287 0 650 693 686 184 679 285 0 0
 +16 468 2201 0 ?693 512 462 463 0 0 1 17 686 0 650 287 112 128 684 315 0 679 -1
7 679 0 473 680 678 128 287 285 0 0 -16 315 618 0 ?684 314 308 306 311 308 1 16
 314 1070 0 ?174 311 315 306 308 311 1 16 308 854 0 ?575 315 305 306 315 314 1 1
7 174 0 564 563 94 172 566 314 0 675 +17 566 0 645 246 675 92 174 314 0 558 -17
 558 0 555 559 556 92 246 243 0 0 -17 201 0 28 204 186 199 678 462 0 667 +17 204
 0 28 207 201 202 667 437 0 671 -17 207 0 28 216 204 205 671 430 0 674 -14 474 2
100 659 ?504 472 692 4 458 -0 0 504 472 23 81 1 659 6610 632 474 694 0 656 695 6
96 14 472 2111 695 ?474 469 673 4 432 +0 0 474 469 23 81 1 695 6611 632 472 697
 0 659 698 699 80 255 1 632 700 701 9000 1 1 1 1 1 1 1 1 0 FFFFTFTFFFFFFF1 81 1
 697 4697 702 472 0 695 703 694 704 81 1 698 6612 632 382 705 0 695 706 707 82 2
55 1 699 -246284040 14 382 2127 698 ?469 379 668 4 385 +0 0 469 379 23 81 1 705
 4695 702 382 0 698 708 703 709 81 1 706 6613 632 383 710 0 698 711 712 82 1 707
 -244711176 14 383 2149 706 ?379 387 579 4 371 -0 0 379 387 23 81 1 710 4693 702
 383 0 706 713 708 714 81 1 711 6614 632 410 715 0 706 716 717 82 1 712 -2424829
52 14 410 288 711 ?224 412 718 4 719 -0 0 224 412 23 81 1 715 4736 702 410 0 711
 720 721 722 81 1 716 6615 632 412 720 0 711 723 724 82 1 717 70516980 14 412 20
04 716 ?410 630 725 4 406 +0 0 410 630 23 81 1 720 4735 702 412 0 716 726 715 72
7 81 1 723 6616 632 609 728 0 716 729 730 82 1 724 -2024931084 14 609 163 723 ?6
04 731 732 4 733 +0 0 604 731 23 81 1 728 4717 702 609 0 723 734 735 736 81 1 72
9 6617 632 621 737 0 723 738 739 82 1 730 54001908 14 621 1 729 ?624 618 740 4 7
41 -0 0 624 618 23 81 1 737 4730 702 621 0 729 742 743 744 81 1 738 6618 632 622
 745 0 729 746 747 82 1 739 62652656 14 622 1480 738 ?618 748 749 4 750 +0 0 618
 748 23 81 1 745 4728 702 622 0 738 751 742 752 81 1 746 6619 632 748 751 0 738
 753 754 82 1 747 -927203091 14 748 1478 746 ?622 755 756 4 757 +0 0 622 755 23
 81 1 751 4727 702 748 0 746 758 745 759 81 1 753 6620 632 755 758 0 746 760 761
 82 1 754 -925630227 14 755 1476 753 ?748 762 763 4 764 +0 0 748 762 23 81 1 758
 4726 702 755 0 753 765 751 766 81 1 760 6621 632 762 765 0 753 767 768 82 1 761
 -924450579 14 762 1474 760 ?755 769 770 4 771 +0 0 755 769 23 81 1 765 4725 702
 762 0 760 772 758 773 81 1 767 6622 632 769 772 0 760 774 775 82 1 768 -9233364
67 14 769 1472 767 ?762 776 777 4 778 +0 0 762 776 23 81 1 772 4724 702 769 0 76
7 779 765 780 81 1 774 6623 632 776 779 0 767 781 782 82 1 775 -922222355 14 776
 1470 774 ?769 783 784 4 785 +0 0 769 783 23 81 1 779 4723 702 776 0 774 786 772
 787 81 1 781 6624 632 783 786 0 774 788 789 82 1 782 -921108243 14 783 1468 781
 ?776 14 790 4 15 +0 0 776 14 23 81 1 786 4722 702 783 0 781 791 779 792 81 1 78
8 6625 632 14 791 0 781 793 794 82 1 789 -919994131 14 14 1466 788 ?783 613 795
 4 5 +0 0 783 613 23 81 1 791 4721 702 14 0 788 796 786 797 81 1 793 6626 632 73
1 734 0 788 798 799 82 1 794 -918880019 14 731 156 793 ?609 800 801 4 802 -0 0 6
09 800 23 81 1 734 4716 702 731 0 793 803 728 804 81 1 798 6627 632 800 803 0 79
3 805 806 82 1 799 1961951469 14 800 152 798 ?731 807 808 4 809 -0 0 731 807 23
 81 1 803 4715 702 800 0 798 810 734 811 81 1 805 6628 632 807 810 0 798 812 813
 82 1 806 1961820397 14 807 148 805 ?800 814 815 4 816 -0 0 800 814 23 81 1 810
 4714 702 807 0 805 817 803 818 81 1 812 6629 632 814 817 0 805 819 820 82 1 813
 1961689325 14 814 144 812 ?807 821 822 4 823 -0 0 807 821 23 81 1 817 4713 702
 814 0 812 824 810 825 81 1 819 6630 632 821 824 0 812 826 827 82 1 820 19615582
53 14 821 140 819 ?814 828 35 4 829 -0 0 814 828 23 81 1 824 4712 702 821 0 819
 830 817 831 81 1 826 6631 632 828 830 0 819 832 833 82 1 827 1961427181 14 828
 136 826 ?821 834 835 4 836 -0 0 821 834 23 81 1 830 4711 702 828 0 826 837 824
 838 81 1 832 6632 632 834 837 0 826 839 840 82 1 833 1961033965 14 834 132 832
 ?828 841 842 4 843 -0 0 828 841 23 81 1 837 4710 702 834 0 832 844 830 845 81 1
 839 6633 632 841 844 0 832 846 847 82 1 840 1960902893 14 841 128 839 ?834 375
 848 4 849 -0 0 834 375 23 81 1 844 4709 702 841 0 839 850 837 851 81 1 846 6634
 632 552 852 0 839 853 854 82 1 847 1961099501 14 552 1127 846 ?565 240 855 4 85
6 -0 0 565 240 23 81 1 852 4704 702 552 0 846 857 858 859 81 1 853 6635 632 375
 850 0 846 860 861 82 1 854 -958332691 14 375 410 853 ?841 577 588 4 363 +565 57
7 841 577 23 81 1 850 4708 702 375 0 853 862 844 863 81 1 860 6636 632 577 862 0
 853 864 865 82 1 861 -1069022997 14 577 634 860 ?375 685 573 4 363 +375 685 375
 685 23 81 1 862 4707 702 577 0 860 866 850 867 81 1 864 6637 632 685 866 0 860
 868 869 82 1 865 -1035337493 14 685 864 864 ?577 565 683 4 363 +577 565 577 565
 23 81 1 866 4706 702 685 0 864 858 862 870 81 1 868 6638 632 565 858 0 864 871
 872 82 1 869 -1000996629 14 565 1080 868 ?685 552 564 4 363 +685 375 685 552 23
 81 1 858 4705 702 565 0 868 852 866 873 81 1 871 6639 632 874 875 0 868 876 877
 82 1 872 -968228629 14 874 347 871 ?878 409 879 4 880 +0 0 878 409 23 81 1 875
 4739 702 874 0 871 881 882 883 81 1 876 6640 632 409 881 0 871 884 885 82 1 877
 -1104609049 14 409 344 876 ?874 224 886 4 887 +0 0 874 224 23 81 1 881 4738 702
 409 0 876 721 875 888 81 1 884 6641 632 878 882 0 876 889 890 82 1 885 -1104019
225 14 878 1114 884 ?0 874 891 4 651 +0 0 0 874 23 81 1 882 4740 702 878 0 884 8
75 0 892 81 1 889 6642 632 503 893 0 884 0 894 82 1 890 61276408 14 503 2073 889
 ?557 500 549 4 421 +0 0 557 500 23 81 1 893 4701 702 503 0 889 895 896 897 82 1
 894 -250085128 80 1 702 0 898 8001 0 0 0 0 3 5 0 0 0 FFFFTFTFFFFFFF2 81 1 895 4
700 702 500 0 502 899 893 900 81 1 896 4702 702 557 0 603 893 857 901 83 255 3 8
97 .792156862745098 .819607843137255 .933333333333333 81 1 603 6596 632 557 896
 0 599 607 902 81 1 857 4703 702 240 0 599 896 852 903 83 3 901 .792156862745098
 .819607843137255 .933333333333333 81 1 599 6595 632 240 857 0 508 603 904 83 3
 903 .792156862745098 .819607843137255 .933333333333333 81 1 508 6594 632 504 89
9 0 502 599 905 82 1 904 -258146056 81 1 899 4699 702 504 0 508 694 895 906 81 1
 502 6593 632 500 895 0 471 508 907 82 1 905 -247856904 81 1 471 6592 632 469 70
3 0 408 502 908 82 1 907 -248971016 81 1 703 4696 702 469 0 471 705 697 909 81 1
 408 6591 632 224 721 0 381 471 910 82 1 908 -245169928 81 1 721 4737 702 224 0
 408 715 881 911 81 1 381 6590 632 379 708 0 0 408 912 82 1 910 -251592456 81 1
 708 4694 702 379 0 381 710 705 913 82 1 912 -243597064 83 3 913 .79215686274509
8 .819607843137255 .933333333333333 83 3 911 .792156862745098 .819607843137255 .
933333333333333 83 3 909 .792156862745098 .819607843137255 .933333333333333 81 1
 694 4698 702 474 0 659 697 899 914 83 3 906 .792156862745098 .819607843137255 .
933333333333333 83 3 914 .792156862745098 .819607843137255 .933333333333333 81 1
 607 6597 632 604 735 0 603 612 915 82 1 902 -250543880 81 1 735 4718 702 604 0
 607 728 916 917 81 1 612 6598 632 608 916 0 607 616 918 82 1 915 -935460628 81
 1 916 4719 702 608 0 612 735 796 919 81 1 616 6599 632 613 796 0 612 620 920 82
 1 918 -936050452 81 1 796 4720 702 613 0 616 916 791 921 81 1 620 6600 632 618
 742 0 616 625 922 82 1 920 -936640276 81 1 742 4729 702 618 0 620 745 737 923 8
1 1 625 6601 632 624 743 0 620 629 924 82 1 922 910688496 81 1 743 4731 702 624
 0 625 737 925 926 82 1 924 2038235378 81 1 925 4732 702 626 0 638 743 633 927 8
3 3 926 .792156862745098 .819607843137255 .933333333333333 81 1 638 6604 632 626
 925 0 634 643 928 81 1 633 4733 702 628 0 629 925 726 929 83 3 927 .79215686274
5098 .819607843137255 .933333333333333 81 1 726 4734 702 630 0 634 633 720 930 8
3 3 929 .792156862745098 .819607843137255 .933333333333333 81 1 634 6603 632 630
 726 0 629 638 931 83 3 930 .792156862745098 .819607843137255 .933333333333333 8
2 1 931 71303412 82 1 928 70910194 83 3 923 .792156862745098 .819607843137255 .9
33333333333333 83 3 921 .792156862745098 .819607843137255 .933333333333333 83 3
 919 .792156862745098 .819607843137255 .933333333333333 83 3 917 .79215686274509
8 .819607843137255 .933333333333333 83 3 900 .792156862745098 .819607843137255 .
933333333333333 79 255 15 898 SDL/TYSA_COLOUR83 3 892 .792156862745098 .81960784
3137255 .933333333333333 15 891 2178 0 932 878 933 50 651 370 0 878 377 880 0 +.
009 .0265 0 0 -1 0 0 0 -1 54 880 369 0 874 651 887 0 +0 .02825 0 0 -1 0 .009 .00
175 0 0 -1 50 887 368 0 409 880 719 0 +0 .03 0 0 1 0 0 0 1 50 719 298 0 410 887
 640 0 +.01125 -.01 -485722573273506e-31 0 1 0 0 0 1 50 640 271 0 626 719 637 0
 +0 -.01 -.01125 0 1 0 0 0 1 50 637 244 0 630 640 856 0 +-.01125 -.01 -485722573
273506e-31 0 1 0 0 0 1 50 856 178 0 552 637 733 0 +.005625 .005 -.01125 0 -1 0 0
 0 -1 50 733 177 0 609 856 802 0 +.005625 0 -.01125 0 -1 0 0 0 -1 51 802 176 0 7
31 733 809 0 +.01125 .005 -.01125 0 -1 0 .00462323334328694 0 0 -1 51 809 175 0
 800 802 816 0 -.01125 .005 -3642919299551295e-32 0 -1 0 .00662676665671306 0 0
 -1 51 816 174 0 807 809 823 0 +.01125 .005 .01125 0 -1 0 .00462323334328694 0 0
 -1 51 823 173 0 814 816 829 0 -0 .005 .01125 0 -1 0 .00662676665671303 0 0 -1 5
1 829 172 0 821 823 836 0 +-.01125 .005 .01125 0 -1 0 .00462323334328694 0 0 -1
 51 836 171 0 828 829 843 0 --.01125 .005 -3642919299551295e-32 0 -1 0 .00662676
665671306 0 0 -1 51 843 170 0 834 836 849 0 +-.01125 .005 -.01125 0 -1 0 .004623
23334328694 0 0 -1 51 849 169 0 841 843 741 0 -0 .005 -.01125 0 -1 0 .0066267666
5671303 0 0 -1 50 741 2 0 621 849 750 0 +0 -.01 .01125 0 1 0 0 0 1 54 750 1531 0
 622 741 757 0 +-.01125 .003 -.01125 0 -1 0 .00662323334328694 .002 0 0 -1 54 75
7 1530 0 748 750 764 0 +-.01125 .003 -3642919299551295e-32 0 -1 0 .0046267666567
1306 .002 0 0 -1 54 764 1529 0 755 757 771 0 +0 .003 -.01125 0 -1 0 .00462676665
671303 .002 0 0 -1 54 771 1528 0 762 764 778 0 +-.01125 .003 .01125 0 -1 0 .0066
2323334328694 .002 0 0 -1 54 778 1527 0 769 771 785 0 +.01125 .003 -.01125 0 -1
 0 .00662323334328694 .002 0 0 -1 54 785 1526 0 776 778 15 0 +0 .003 .01125 0 -1
 0 .00462676665671303 .002 0 0 -1 54 15 1525 0 783 785 5 0 +.01125 .003 -3642919
299551295e-32 0 -1 0 .00462676665671306 .002 0 0 -1 17 932 0 891 932 932 0 934 9
35 0 0 -15 933 353 0 317 878 0 17 317 0 933 317 317 0 936 313 0 0 +17 936 0 937
 936 936 0 317 313 0 0 -15 937 350 0 936 874 0 17 934 0 411 934 934 0 932 935 0
 0 +16 935 2185 0 ?934 32 0 420 0 0 1 16 32 2197 0 ?31 225 935 418 0 0 1 31 420
 2251 0 935 0 418 0 +0 .0265 0 0 -1 0 0 0 -1 .00880138964655104 15 411 2222 0 93
4 224 28 83 3 888 .792156862745098 .819607843137255 .933333333333333 15 886 346
 0 938 409 0 17 938 0 886 938 938 0 320 318 0 0 -17 320 0 879 320 320 0 938 318
 0 0 +15 879 349 0 320 874 937 83 3 883 .792156862745098 .819607843137255 .93333
3333333333 83 3 873 .792156862745098 .819607843137255 .933333333333333 83 3 870
 .792156862745098 .819607843137255 .933333333333333 83 3 867 .792156862745098 .8
19607843137255 .933333333333333 83 3 863 .792156862745098 .819607843137255 .9333
33333333333 83 3 859 .792156862745098 .819607843137255 .933333333333333 15 855 1
354 0 64 552 550 17 64 0 855 939 67 62 940 941 0 942 +17 939 0 855 85 64 77 943
 944 0 0 +17 67 0 855 64 70 65 945 946 0 947 +17 940 0 763 948 942 65 64 941 0 0
 -16 941 1381 0 ?64 944 946 949 0 0 1 17 942 0 763 940 950 62 58 951 0 943 -15 7
63 1477 0 948 755 0 17 950 0 763 942 948 56 55 952 0 953 -17 58 0 749 954 943 56
 942 951 0 950 +16 951 1505 0 ?58 955 533 956 0 0 1 17 943 0 749 58 79 62 939 94
4 0 0 -15 749 1481 0 58 622 0 17 79 0 749 943 954 77 957 533 0 958 +16 944 1384
 0 ?939 959 941 960 0 0 1 16 959 1395 0 ?953 952 944 961 0 0 1 31 960 1386 0 944
 949 961 0 +-.01125 .005 -.01125 0 -1 0 0 0 -1 .00662323334328694 31 949 1383 0
 941 962 960 0 -0 .005 -.01125 0 -1 0 0 0 -1 .00462676665671303 31 961 1397 0 95
9 960 963 0 --.01125 .003 -.01125 0 -1 0 0 0 -1 .00462323334328694 31 963 1405 0
 952 961 964 0 +0 .003 -.01125 0 -1 0 0 0 -1 .00662676665671303 16 952 1403 0 ?5
5 965 959 963 0 0 1 31 964 1413 0 965 963 966 0 -.01125 .003 -.01125 0 -1 0 0 0
 -1 .00462323334328694 16 965 1411 0 ?52 967 952 964 0 0 1 31 966 1421 0 967 964
 968 0 +.01125 .003 -3642919299551295e-32 0 -1 0 0 0 -1 .00662676665671306 16 96
7 1419 0 ?49 969 965 966 0 0 1 31 968 1429 0 969 966 970 0 -.01125 .003 .01125 0
 -1 0 0 0 -1 .00462323334328694 16 969 1427 0 ?46 971 967 968 0 0 1 31 970 1437
 0 971 968 972 0 +0 .003 .01125 0 -1 0 0 0 -1 .00662676665671303 16 971 1435 0 ?
41 973 969 970 0 0 1 31 972 1445 0 973 970 974 0 +-.01125 .003 -3642919299551295
e-32 0 -1 0 0 0 -1 .00662676665671306 16 973 1443 0 ?61 39 971 972 0 0 1 31 974
 1450 0 39 972 975 0 --.01125 .003 .01125 0 -1 0 0 0 -1 .00462323334328694 16 39
 1448 0 ?33 976 973 974 0 0 1 31 975 1539 0 533 974 956 0 +-.01125 .003 -.004626
7666567131 1 0 260208521396521e-29 260208521396521e-29 0 -1 .002 16 533 1507 0 ?
79 951 530 975 0 0 1 31 956 1538 0 951 975 977 0 +-.00462676665671303 .003 -.011
25 0 0 1 1 0 0 .002 31 977 1537 0 955 956 978 0 +-.01125 .003 .00462676665671306
 -1 693889390390723e-29 693889390390723e-29 693889390390723e-29 0 1 .002 16 955
 1502 0 ?979 980 951 977 0 0 1 31 978 1536 0 980 977 981 0 +.00462676665671303 .
003 -.01125 -867361737988404e-30 0 -1 -1 0 867361737988404e-30 .002 16 980 1499
 0 ?948 982 955 978 0 0 1 31 981 1535 0 982 978 983 0 +-.00462676665671303 .003
 .01125 -867361737988404e-30 0 -1 -1 0 867361737988404e-30 .002 16 982 1496 0 ?9
84 985 980 981 0 0 1 31 983 1534 0 985 981 986 0 +.01125 .003 -.0046267666567131
 -1 0 1734723475976805e-30 1734723475976805e-30 0 1 .002 16 985 1493 0 ?987 988
 982 983 0 0 1 31 986 1533 0 988 983 989 0 +.00462676665671303 .003 .01125 -8673
61737988404e-30 0 1 1 0 867361737988404e-30 .002 16 988 1490 0 ?990 540 985 986
 0 0 1 31 989 1532 0 540 986 991 0 +.01125 .003 .00462676665671306 1 0 346944695
1953615e-30 3469446951953615e-30 0 -1 .002 16 540 1487 0 ?992 536 988 989 0 0 1
 31 991 1871 0 976 989 16 0 +0 0 -.01125 0 -1 0 0 0 -1 .001830041123463015 16 97
6 1868 0 ?993 25 39 991 0 0 1 31 16 1985 0 25 991 6 0 +.01125 0 37470027081099e-
30 0 -1 0 0 0 -1 .001830041123463015 16 25 1982 0 ?994 9 976 16 0 0 1 17 994 0 9
95 994 994 0 996 25 0 0 +15 995 2008 0 994 412 0 17 996 0 732 996 996 0 994 25 0
 0 -15 732 1984 0 996 609 997 15 997 1931 0 998 609 999 17 998 0 997 998 998 0 5
26 520 0 0 -15 999 1870 0 1000 609 1001 17 1000 0 999 1000 1000 0 993 976 0 0 -1
5 1001 1809 0 1002 609 1003 17 1002 0 1001 1002 1002 0 535 529 0 0 -15 1003 1302
 0 1004 609 1005 17 1004 0 1003 1004 1004 0 1006 589 0 0 -15 1005 166 0 1007 609
 0 17 1007 0 1005 1008 1009 146 323 321 0 0 -17 1008 0 1005 1010 1007 149 344 34
2 0 0 -17 1009 0 1005 1007 1011 166 326 324 0 323 -17 323 0 848 1012 148 166 100
7 321 0 0 +15 848 131 0 1012 841 0 17 1012 0 848 55 323 56 168 359 0 0 -17 148 0
 848 323 55 146 1013 345 0 344 +17 55 0 848 148 1012 53 950 952 0 1013 +17 1013
 0 801 52 344 53 148 345 0 1014 -17 344 0 801 1013 151 146 1008 342 0 1007 +15 8
01 159 0 1013 731 0 17 151 0 801 344 52 149 1015 347 0 341 +17 52 0 801 151 1013
 50 1014 965 0 1015 +17 1015 0 808 49 341 50 151 347 0 1016 -17 341 0 808 1015 1
54 149 1010 339 0 1008 +15 808 155 0 1015 800 0 17 154 0 808 341 49 152 1017 349
 0 338 +17 1010 0 1005 1018 1008 152 341 339 0 0 -17 1018 0 1005 1019 1010 155 3
38 336 0 0 -17 1019 0 1005 1020 1018 158 335 333 0 0 -17 338 0 815 1017 157 152
 1018 336 0 1010 +15 815 151 0 1017 807 0 17 1017 0 815 46 338 47 154 349 0 1021
 -17 157 0 815 338 46 155 1022 351 0 335 +17 46 0 815 157 1017 42 1021 969 0 102
2 +17 1022 0 822 41 335 42 157 351 0 1023 -17 335 0 822 1022 160 155 1019 333 0
 1018 +15 822 147 0 1022 814 0 17 160 0 822 335 41 158 37 353 0 332 +17 41 0 822
 160 1022 34 1024 971 0 37 +17 37 0 35 33 332 34 160 353 0 1025 -17 332 0 35 37
 36 158 1020 330 0 1019 +15 35 143 0 37 821 0 17 36 0 35 332 33 161 40 355 0 329
 +17 1020 0 1005 1011 1019 161 332 330 0 0 -17 1011 0 1005 1009 1020 163 329 327
 0 0 -17 329 0 835 40 165 161 1011 327 0 1020 +15 835 139 0 40 828 0 17 40 0 835
 61 329 27 36 355 0 1026 -17 165 0 835 329 61 163 1027 357 0 326 +17 61 0 835 16
5 40 59 1028 973 0 1027 +17 1027 0 842 953 326 59 165 357 0 954 -17 326 0 842 10
27 168 163 1009 324 0 1011 +15 842 135 0 1027 834 0 17 168 0 842 326 953 166 101
2 359 0 1009 +17 953 0 842 168 1027 56 954 959 0 1012 +17 954 0 749 79 58 59 953
 959 0 957 -17 957 0 756 1028 958 59 79 533 0 0 -15 756 1479 0 979 748 0 17 1028
 0 756 979 957 27 61 973 0 0 -17 958 0 756 957 979 77 85 1029 0 939 -17 979 0 75
6 958 1028 83 1026 955 0 0 +17 85 0 855 82 939 83 958 1029 0 1030 +16 1029 1361
 0 ?85 1031 1032 1033 0 0 1 16 1031 1365 0 ?76 1034 1029 1035 0 0 1 16 1032 1357
 0 ?82 1029 589 1036 0 0 1 31 1033 1363 0 1029 1036 1035 0 --.01125 .005 -364291
9299551295e-32 0 -1 0 0 0 -1 .00462676665671306 31 1036 1359 0 1032 594 1033 0 +
-.01125 .005 .01125 0 -1 0 0 0 -1 .00662323334328694 31 1035 1367 0 1031 1033 10
37 0 -0 .005 .01125 0 -1 0 0 0 -1 .00462676665671303 31 1037 1371 0 1034 1035 10
38 0 +.01125 .005 .01125 0 -1 0 0 0 -1 .00662323334328694 16 1034 1369 0 ?73 103
9 1031 1037 0 0 1 31 1038 1375 0 1039 1037 962 0 -.01125 .005 -3642919299551295e
-32 0 -1 0 0 0 -1 .00462676665671306 16 1039 1373 0 ?70 946 1034 1038 0 0 1 31 9
62 1379 0 946 1038 949 0 +.01125 .005 -.01125 0 -1 0 0 0 -1 .00662323334328694 1
6 946 1377 0 ?67 941 1039 962 0 0 1 17 70 0 855 67 73 68 1040 1039 0 1041 +17 73
 0 855 70 76 71 1042 1034 0 1043 +17 1040 0 790 992 1041 71 70 1039 0 0 -17 1041
 0 790 1040 1016 68 987 985 0 945 -15 790 1469 0 992 783 0 17 1016 0 790 1041 99
2 50 49 967 0 987 -17 987 0 777 1014 945 50 1041 985 0 0 +17 945 0 777 987 947 6
8 67 946 0 0 -15 777 1473 0 987 769 0 17 947 0 777 945 1014 65 948 980 0 940 -17
 1014 0 777 947 987 53 52 965 0 948 -17 948 0 763 950 940 53 947 980 0 0 +17 992
 0 790 1016 1040 47 1043 540 0 0 +17 49 0 808 154 1015 47 1016 967 0 1017 +17 10
43 0 795 1042 1021 71 992 540 0 1040 -15 795 1467 0 1023 14 0 17 1042 0 795 1023
 1043 74 73 1034 0 990 -17 1021 0 795 1043 1023 47 46 969 0 992 -17 1023 0 795 1
021 1042 42 990 988 0 1024 -17 990 0 784 1044 1024 74 1023 988 0 0 +17 1024 0 78
4 990 1025 42 41 971 0 0 -15 784 1471 0 990 776 0 17 1025 0 784 1024 1044 34 984
 982 0 38 -17 1044 0 784 1025 990 80 76 1031 0 984 -17 984 0 770 1030 38 80 1025
 982 0 0 +17 38 0 770 984 1026 34 33 39 0 0 -15 770 1475 0 984 762 0 17 1026 0 7
70 38 1030 27 979 955 0 1028 -17 1030 0 770 1026 984 83 82 1032 0 979 -17 82 0 8
55 76 85 80 1030 1032 0 1044 +17 76 0 855 73 82 74 1044 1031 0 1042 +31 594 1303
 0 589 590 1036 0 +0 0 0 0 -1 0 0 0 -1 .00518382186476084 16 589 1300 0 ?1006 10
32 560 594 0 0 1 17 1006 0 1045 1006 1006 0 1004 589 0 0 +15 1045 1320 0 1006 61
3 0 17 535 0 1046 535 535 0 1002 529 0 0 +15 1046 1834 0 535 618 0 17 993 0 1047
 993 993 0 1000 976 0 0 +15 1047 1894 0 993 624 0 17 526 0 642 526 526 0 998 520
 0 0 +15 642 1956 0 526 628 0 83 3 851 .792156862745098 .819607843137255 .933333
333333333 83 3 845 .792156862745098 .819607843137255 .933333333333333 83 3 838 .
792156862745098 .819607843137255 .933333333333333 83 3 831 .792156862745098 .819
607843137255 .933333333333333 83 3 825 .792156862745098 .819607843137255 .933333
333333333 83 3 818 .792156862745098 .819607843137255 .933333333333333 83 3 811 .
792156862745098 .819607843137255 .933333333333333 83 3 804 .792156862745098 .819
607843137255 .933333333333333 83 3 797 .792156862745098 .819607843137255 .933333
333333333 83 3 792 .792156862745098 .819607843137255 .933333333333333 83 3 787 .
792156862745098 .819607843137255 .933333333333333 83 3 780 .792156862745098 .819
607843137255 .933333333333333 83 3 773 .792156862745098 .819607843137255 .933333
333333333 83 3 766 .792156862745098 .819607843137255 .933333333333333 83 3 759 .
792156862745098 .819607843137255 .933333333333333 83 3 752 .792156862745098 .819
607843137255 .933333333333333 83 3 744 .792156862745098 .819607843137255 .933333
333333333 15 740 1838 0 532 621 0 17 532 0 740 532 532 0 1048 530 0 0 +17 1048 0
 623 1048 1048 0 532 530 0 0 -15 623 1833 0 1048 618 1046 83 3 736 .792156862745
098 .819607843137255 .933333333333333 83 3 727 .792156862745098 .819607843137255
 .933333333333333 15 725 2007 0 519 412 995 17 519 0 725 519 519 0 1049 517 0 0
 +17 1049 0 718 1049 1049 0 519 517 0 0 -15 718 2012 0 1049 410 0 83 3 722 .7921
56862745098 .819607843137255 .933333333333333 81 1 713 4692 702 387 0 654 653 71
0 1050 83 3 714 .792156862745098 .819607843137255 .933333333333333 81 1 654 6608
 632 387 713 0 652 656 1051 81 1 653 4691 702 233 0 652 658 713 1052 83 3 1050 .
792156862745098 .819607843137255 .933333333333333 81 1 658 4690 702 649 0 656 10
53 653 1054 83 3 1052 .792156862745098 .819607843137255 .933333333333333 81 1 10
53 4689 702 644 0 647 646 658 1055 83 3 1054 .792156862745098 .819607843137255 .
933333333333333 81 1 647 6606 632 644 1053 0 643 652 1056 81 1 646 4688 702 12 0
 643 0 1053 1057 83 3 1055 .792156862745098 .819607843137255 .933333333333333 83
 3 1057 .792156862745098 .819607843137255 .933333333333333 82 1 1056 -240647944
 82 1 1051 -242024200 83 3 709 .792156862745098 .819607843137255 .93333333333333
3 50 385 792 0 382 432 371 1058 +.002172787320059015 .0265 .0015 .84889071300682
6 .528568403681834 0 -.528568403681834 .848890713006826 0 141 1058 431 1058 1058
 385 83 3 704 .792156862745098 .819607843137255 .933333333333333 79 14 701 SWEnt
Unchanged82 1 696 -247398152 17 572 0 505 665 493 104 263 257 0 0 -17 30 0 28 26
 216 220 556 238 0 31 +16 238 2189 0 ?30 391 225 392 0 0 1 17 195 0 28 192 198 1
93 662 663 0 664 -17 145 0 657 578 662 143 580 302 0 575 +17 580 0 579 581 576 1
96 145 302 0 0 -82 1 660 -241106696 82 1 655 -241565448 82 1 648 -240189192 17 6
41 0 631 641 641 0 523 521 0 0 -17 523 0 636 523 523 0 641 521 0 0 +15 636 1960
 0 523 630 0 15 639 1898 0 1059 626 0 17 1059 0 639 1059 1059 0 528 524 0 0 -17
 528 0 627 528 528 0 1059 524 0 0 +15 627 1893 0 528 624 1047 82 1 635 -20350236
28 15 617 1319 0 538 613 1045 17 538 0 617 538 538 0 1060 536 0 0 +17 1060 0 106
1 1060 1060 0 538 536 0 0 -15 1061 1316 0 1060 608 0 15 614 1315 0 542 608 1061
 17 542 0 614 542 542 0 1062 539 0 0 +17 1062 0 610 1062 1062 0 542 539 0 0 -15
 610 1312 0 1062 604 0 40 10 595 0 1 10 .000650597318601476 .340653051906275 ??.
00150000000000005 -.001931539508036545 -.01422983372776322 .0015 .01202057439293
316 -.00322390686264221 .0015 .01406051118047374 -.001297949989119024 .0015 .014
47654948294036 -.000717940079359672 .0015 .01466103435555052 -.00025053156209868
05 .0015 .01467802793059486 .0001519950320951135 .0015 .014566598608993 .0005379
89446458552 .0015 .0139996813837301 .00136852495591379 .001499999999999986 .0107
3668594777186 .00429063049849185 .001499999999999982 .00932292656967044 .0054315
3950803655 41 1 596 L?.00150000000000005 -.001931539508036545 -.0142298337277632
2 41 1 597 L?.001499999999999982 .00932292656967044 .00543153950803655 141 510 4
18 510 510 421 40 8 497 0 1 8 .002282829250307615 .399313696513678 ??.0015 .0093
2292656967042 -.00543153950803655 .0015 .0144917895981829 -.000690297848680114 .
0015 .01466201248324992 -.000245914163895098 .0015 .01467761148243032 .000155146
360638612 .0015 .0145659529662186 .000539461576764664 .0015 .0139963417764162 .0
01372340860153644 .001499999999999986 .0107197834781314 .00430442794072947 .0014
99999999999952 -.001931539508036545 .01422983372776324 41 1 498 L?.0015 .0093229
2656967042 -.00543153950803655 41 1 499 L?.001499999999999952 -.0019315395080365
45 .01422983372776324 40 10 486 0 1 10 .000627351432289934 .3389281865610305 ??.
01470481985897106 -.002544557329167245 -.0015 .003346031476723485 .0118764350242
613 -.0015 .0013693962814335 .013998919262774 -.0015 .000753926297017357 .014455
98382870706 -.0015 .000283490263153006 .01465354017809726 -.0015 -.0001192612560
416982 .01468185244059364 -.0015 -.000508962339802654 .01457900804176044 -.0015
 -.001170207923585292 .01416578270707352 -.0015 -.003723029332426575 .0114262265
197426 -.0015 -.00754455732916725 .00665344607968257 -.0015 41 1 487 L?.01470481
985897106 -.002544557329167245 -.0015 41 1 488 L?-.00754455732916725 .0066534460
7968257 -.0015 141 476 370 1063 1063 432 141 1063 428 476 476 432 141 475 451 47
5 475 458 40 3 459 0 1 3 .0003636967834888935 .3394787398024045 ??-.001500200000
00005 .0219869194495985 .00498289201983096 .000617382853630399 .0218577221215823
 .00506333774079733 .0015002 .0219869194495985 .00498289201983098 41 1 460 L?-.0
0150020000000005 .0219869194495985 .00498289201983096 41 1 461 L?.0015002 .02198
69194495985 .00498289201983098 40 10 453 0 1 10 .000673188617232953 .34066495871
3576 ??-.00150000000000005 .03441867272994035 .0150390706756777 -.0015 .01998143
394543965 .003278301557893135 -.0015 .01798219511154055 .001340191981157776 -.00
15 .01754057537519105 .000709799284031935 -.0015 .0173647492262047 .000241422033
0788185 -.0015 .0173532131343912 -.000174431769146939 -.0015 .01747249003966565
 -.000571516018381992 -.0015 .0181010950441972 -.001478647049578936 -.0014999999
99999984 .0216999561777874 -.0047435625858127 -.00149999999999998 .0236400155317
678 -.00634672974808344 41 1 454 L?-.00150000000000005 .03441867272994035 .01503
90706756777 41 1 455 L?-.00149999999999998 .0236400155317678 -.00634672974808344
 40 10 445 0 1 10 .000673188617232952 .3406649587135765 ??-.0150390706756777 .03
441867272994035 .0015 -.00327830155789314 .01998143394543965 .0015 -.00134019198
115778 .01798219511154055 .0015 -.00070979928403194 .01754057537519105 .0015 -.0
002414220330788235 .0173647492262047 .0015 .0001744317691469345 .017353213134391
2 .0015 .000571516018381987 .01747249003966565 .0015 .001478647049578934 .018101
0950441972 .0015 .0047435625858127 .02169995617778745 .0015 .00634672974808343 .
0236400155317678 .0015 41 1 446 L?-.0150390706756777 .03441867272994035 .0015 41
 1 447 L?.00634672974808343 .0236400155317678 .0015 40 3 439 0 1 3 .000363696783
4888935 .3394787398024045 ??.00498289201983097 .0219869194495985 -.0015002 .0050
6333774079732 .0218577221215823 .000617382853630447 .00498289201983097 .02198691
94495985 .0015002 41 1 440 L?.00498289201983097 .0219869194495985 -.0015002 41 1
 441 L?.00498289201983097 .0219869194495985 .0015002 40 9 433 0 1 9 .00195752420
2924075 .332209425038152 ??-.00634672974808343 .0236400155317678 -.0015 -.000942
046470521632 .01768085541525865 -.0015 -.000396908839913831 .01740529396168825 -
.0015 25943856860557e-18 .01734081414678395 -.0015 .0004466101425868445 .0174221
6852103915 -.0015 .00107237664385209 .0177719576441139 -.0015 .0032662935755715
 .0199677402842871 -.0015 .01105399797105642 .0294529485158027 -.0015 .015039070
6756777 .03441867272994035 -.0015 41 1 434 L?-.00634672974808343 .02364001553176
78 -.0015 41 1 435 L?.0150390706756777 .03441867272994035 -.0015 31 239 2249 0 2
25 418 392 0 -0 .0181845327912233 0 0 1 0 0 0 1 .002172787320059015 40 3 422 0 1
 3 .000363696783488893 .3394787398024045 ??-.0015002 .0219869194495985 -.0049828
9201983098 .000617382853630457 .0218577221215823 -.00506333774079732 .0015002000
00000055 .0219869194495985 -.00498289201983096 41 1 423 L?-.0015002 .02198691944
95985 -.00498289201983098 41 1 424 L?.001500200000000055 .0219869194495985 -.004
98289201983096 40 3 403 0 1 3 .0003636967834888935 .3394787398024045 ??-.0049828
9201983097 .0219869194495985 -.0015002 -.00506333774079732 .0218577221215823 .00
0617382853630448 -.00498289201983097 .0219869194495985 .0015002 41 1 404 L?-.004
98289201983097 .0219869194495985 -.0015002 41 1 405 L?-.00498289201983097 .02198
69194495985 .0015002 40 9 399 0 1 9 .001957524202924085 .332209425038153 ??.0014
9999999999998 .0236400155317678 .00634672974808344 .0015 .01768085541525865 .000
942046470521636 .0015 .01740529396168825 .0003969088399138335 .0015 .01734081414
678395 -2594385686055505e-20 .0015 .01742216852103915 -.000446610142586842 .0015
 .0177719576441139 -.00107237664385209 .0015 .01996774028428715 -.00326629357557
1515 .001500000000000035 .0294529485158028 -.0110539979710565 .00150000000000005
 .03441867272994035 -.0150390706756777 41 1 400 L?.00149999999999998 .0236400155
317678 .00634672974808344 41 1 401 L?.00150000000000005 .03441867272994035 -.015
0390706756777 141 388 393 388 388 376 141 386 362 1064 1064 371 141 1064 438 386
 386 371 141 378 360 1065 1066 363 141 1065 590 1067 378 363 141 1066 362 378 10
68 363 141 1068 370 1066 1069 363 141 1069 477 1068 1070 363 141 1070 480 1069 1
071 363 141 1071 489 1070 1067 363 141 1067 495 1071 1065 363 40 9 372 0 1 9 .00
1409297214073502 .381711925097358 ??.00754455732916724 .00665344607968257 .0015
 .001398488687171872 .01397332259740782 .0015 .000591953557252116 .0145419215167
676 .0015 .0001615708342361105 .01467673630768426 .0015 -.000292790487510884 .01
465126376767222 .0015 -.000804535370457703 .01442571466169832 .0015 -.0024742050
4033746 .01288004395583244 .0015 -.00810504612159451 .00593922048986655 .0015 -.
01470481985897106 -.002544557329167245 .0015 41 1 373 L?.00754455732916724 .0066
5344607968257 .0015 41 1 374 L?-.01470481985897106 -.002544557329167245 .0015 19
 13 30 0 1 0 8 4 S0 40 9 19 0 1 9 .00195752420292408 .332209425038153 ??-.0015 .
0236400155317678 .00634672974808343 -.0015 .01768085541525865 .00094204647052162
6 -.0015 .01740529396168825 .000396908839913824 -.0015 .01734081414678395 -25943
85686056465e-20 -.0015 .01742216852103915 -.0004466101425868515 -.0015 .01777195
76441139 -.0010723766438521 -.0015 .01996774028428715 -.003266293575571525 -.001
499999999999962 .0294529485158028 -.01105399797105652 -.00149999999999995 .03441
867272994035 -.0150390706756777 41 1 20 L?-.0015 .0236400155317678 .006346729748
08343 41 1 21 L?-.00149999999999995 .03441867272994035 -.0150390706756777 74 4 C
I16 index_map_offset0 0 1 dCCZ20 11 2 0 0 889 882 0 0 0 0 0 0 0 0 0 0 0 0 0 0 0
 0 0 0 1 0 
