**ABCDEFGHIJKLMNOPQRSTUVWXYZabcdefghijklmnopqrstuvwxyz**************************
**PARASOLID !"#$%&'()*+,-./:;<=>?@[\]^_`{|}~0123456789**************************
**PART1;
MC=AMD64;
MC_MODEL=Intel64 Family 6 Model 94 Stepping 3, GenuineIntel;
MC_ID=unknown;
OS=Windows_NT;
OS_RELEASE=unknown;
FRU=Parasolid Version 28.0, build 204, 11- 9-2015;
APPL=SOLIDWORKS 2016-2016040;
SITE=;
USER=unknown;
FORMAT=text;
GUISE=transmit;
KEY=joy_new X2;
FILE=joy_new X2.x_t;
DATE=Sun Jan 15 17:57:16 2017;
**PART2;
SCH=SCH_2800204_28002;
USFLD_SIZE=0;
**PART3;
**END_OF_HEADER*****************************************************************
T51 : TRANSMIT FILE created by modeller version 280020423 SCH_2800204_28002_1300
6200 0 12 30 CCCCCCCCCCCCCDI5 owner1040 0 CCCCCCCCCA13 boundary_mesh1006 0 A16 i
ndex_map_offset0 0 1 dA9 index_map82 0 A17 node_id_index_map82 0 A20 schema_embe
dding_map82 0 A5 child12 0 A14 lowest_node_id0 0 1 dZ1 1246 0 2 0 0 0 0 1e3 1e-8
 0 3 0 1 0 1 1 4 5 6 7 8 9 10 0 0 0 0 0 0 0 70 11 CI9 list_type0 0 1 uI10 notran
smit0 0 1 lCCCDCCDI12 finger_index0 0 1 dI12 finger_block1012 0 CZ2 0 4 T1 0 0 2
 20 1 11 11 13 255 4 116 0 1 0 12 0 0 13 0 68 255 5 279 0 14 15 0 16 +17 0 -.009
5 0 0 -1 0 ????1 0 -698296267768627e-29 ?31 255 6 479 0 18 19 0 0 --.01356470159
60109 .00198353230704211 .01356470159601094 0 -1 0 0 0 -1 .0015 29 255 7 106 0 1
0 20 0 .01436369031923622 .001983532307042115 -10030111341307e-29 19 8 CCCCCCCA5
 owner12 0 Z8 120 0 1 13 0 21 V0 16 255 9 263 0 ?22 0 23 24 0 0 1 18 255 10 104
 0 25 0 26 7 ?1 17 255 25 0 27 28 29 10 30 31 0 32 -18 26 101 0 33 10 34 20 ?1 1
7 33 0 35 36 37 26 38 39 0 40 -18 34 98 0 41 26 42 43 ?1 29 20 103 0 26 43 7 .02
38636903192362 .00198353230704211 -1666392588510895e-31 29 43 100 0 34 44 20 .02
238789162663195 .00698353230704211 -1563338116608555e-31 29 44 97 0 42 45 43 .01
597430261401865 .00698353230704211 -1115479589557582e-31 18 42 95 0 46 34 47 44
 ?1 29 45 94 0 47 48 44 .0150130848595505 .00491321714357226 -1048358112511778e-
31 18 47 92 0 49 42 50 45 ?1 29 48 91 0 50 51 45 .01283185995518046 .00306472146
190274 -896043991523221e-31 18 50 89 0 52 47 53 48 ?1 29 51 88 0 53 54 48 .01 .0
02 -698296267768627e-31 18 53 86 0 55 50 56 51 ?1 29 54 85 0 56 57 51 .0055 .002
 -3840629472727445e-32 18 56 83 0 58 53 59 54 ?1 29 57 82 0 59 60 54 .0055 -.003
5 -3840629472727445e-32 18 59 80 0 61 56 62 57 ?1 29 60 79 0 62 63 57 .006142320
61003034 -.0035 -42891595574225e-30 18 62 77 0 64 59 65 60 ?1 29 63 76 0 65 66 6
0 .01 -.004205307922833865 -698296267768627e-31 18 65 74 0 67 62 68 63 ?1 29 66
 73 0 68 69 63 .00999962635868417 -.0075 -698270176534994e-31 18 68 71 0 70 65 7
1 66 2373641347396565e-21 1 29 69 70 0 71 72 66 .00599955163034436 -.0095 -41894
64511754645e-32 18 71 68 0 73 68 74 69 2373641347396565e-21 1 29 72 210 0 74 75
 69 -.01436369031923622 .001983532307042115 0 18 74 182 0 76 71 77 72 ?1 29 75 2
11 0 77 78 72 -.0238636903192362 .00198353230704211 0 18 77 181 0 38 74 79 75 ?1
 29 78 212 0 79 80 75 -.02238789162663195 .00698353230704211 0 18 79 180 0 81 77
 82 78 ?1 29 80 213 0 82 83 78 -.01597430261401865 .00698353230704211 0 18 82 17
9 0 84 79 85 80 ?1 29 83 214 0 85 86 80 -.0150130848595505 .00491321714357226 0
 18 85 178 0 87 82 88 83 ?1 29 86 215 0 88 89 83 -.01283185995518046 .0030647214
6190274 0 18 88 177 0 90 85 91 86 ?1 29 89 216 0 91 92 86 -.01 .002 0 18 91 176
 0 93 88 94 89 ?1 29 92 217 0 94 95 89 -.0055 .002 0 18 94 175 0 96 91 97 92 ?1
 29 95 218 0 97 98 92 -.0055 -.0035 0 18 97 174 0 99 94 100 95 ?1 29 98 219 0 10
0 101 95 -.00614232061003034 -.0035 0 18 100 173 0 102 97 103 98 ?1 29 101 220 0
 103 104 98 -.01 -.004205307922833865 0 18 103 172 0 105 100 106 101 ?1 29 104 2
21 0 106 107 101 -.00999962635868417 -.0075 0 18 106 171 0 108 103 109 104 23736
41347396565e-21 1 29 107 222 0 109 0 104 -.00599955163034436 -.0095 0 18 109 170
 0 110 106 0 107 2373641347396565e-21 1 17 110 0 111 73 73 109 112 113 0 22 +15
 255 111 264 0 73 12 0 17 73 0 111 110 110 71 22 9 0 112 -17 112 0 114 115 116 7
1 110 113 0 117 -16 113 5 0 ?110 118 119 120 0 0 1 17 22 0 121 122 117 109 73 9
 0 116 +15 121 261 0 70 14 0 17 122 0 121 70 22 106 116 123 124 125 +17 117 0 12
1 22 70 71 115 118 126 0 -17 116 0 114 112 125 109 122 123 127 0 -15 114 4 0 112
 128 0 17 125 0 114 116 129 106 130 131 0 0 +16 123 122 0 2373641347396565e-21 1
22 131 132 0 0 0 1 133 255 127 380 0 116 133 134 0 +134 -.00999962635868416 -.00
75 0 -.00599955163034436 -.0095 0 0 1 30 255 133 315 0 1 135 127 136 +-.01000047
67829567 -1134124590891224e-21 0 .0001134070513048914 -.99999999356942 0 137 255
 134 381 0 1 127 19 137 +138 139 0 ?31 19 426 0 132 134 6 0 +.0135647015960109 .
00198353230704211 .01356470159601094 0 -1 0 0 0 -1 .0015 141 255 137 127 137 137
 134 50 255 138 2 0 128 140 141 142 +0 0 0 -698296267768627e-29 0 -1 -1 0 698296
267768627e-29 134 255 139 0 0 0 0 0 0 +143 144 136 255 143 2 11 2 6 5 FFF1 145 1
46 147 135 255 144 1 0 45 255 22 145 .00999962635868416 -.0075 .0099996153220786
7 -.00779536634319197 .00982887241044762 -.00807811753332886 .0096846532943456 -
.00831694517383704 .00942752153762116 -.00853074359866554 .00901514219145949 -.0
0887362639060188 .00837066915625013 -.00911079463772736 .00783501698530597 -.009
30791644036496 .00720055343449259 -.00940775932660933 .0066142530955053 -.009500
02296882407 .00599955163034436 -.0095 127 255 6 146 3 2 2 2 2 3 128 255 6 147 0
 .125 .25 .5 .75 1 14 255 128 1 148 ?149 150 114 4 138 +0 0 149 150 21 51 255 14
0 462 0 149 151 138 0 +.0135647015960109 -.00301646769295789 .01356470159601094
 0 1 0 .0015 0 0 1 50 141 266 0 12 138 152 0 +0 -.0095 0 0 1 0 0 0 1 141 142 153
 154 154 138 137 153 296 0 1 155 126 156 +138 157 0 ?141 154 134 142 142 138 133
 155 295 0 115 158 153 0 +153 .00599955163034436 -.0095 -418946451175465e-31 .00
999962635868416 -.0075 -698270176534993e-31 0 1 133 126 297 0 117 153 159 0 +159
 .00999962635868416 -.0075 -698270176534993e-31 .00599955163034436 -.0095 -41894
6451175465e-31 0 1 141 156 155 156 156 153 134 157 0 0 0 0 0 0 +160 161 136 160
 2 11 2 6 5 FFF1 162 163 164 135 161 1 0 45 22 162 -.00599955163034436 -.0095 -.
00661370026542484 -.00950002294816712 -.00720055343449259 -.00940775932660933 -.
0078339748520607 -.00930817435878859 -.00837066915625013 -.00911079463772736 -.0
0901418892888861 -.00887412778244445 -.00942752153762116 -.00853074359866554 -.0
0968395278365609 -.00831770830395428 -.00982887241044762 -.00807811753332886 -.0
0999961530460359 -.00779583401869845 -.00999962635868416 -.0075 127 6 163 3 2 2
 2 2 3 128 6 164 0 .25 .5 .75 .875 1 137 159 298 0 1 126 24 165 +5 166 0 ?133 24
 299 0 9 159 167 0 +167 .00599955163034436 -.0095 -4189464511754645e-32 -.005999
55163034436 -.0095 0 1.57079632679489 4.71238898038469 141 165 126 165 165 159 1
34 166 0 0 0 0 0 0 +168 169 136 168 1 2 2 2 5 FFF1 170 171 172 135 169 1 0 45 4
 170 1 -260933603220344e-46 0 -260933603220344e-46 127 2 171 2 2 128 2 172 0 1 3
1 167 300 0 1 24 120 173 +0 -.0095 0 0 -1 0 0 0 -1 .00599955163034436 133 120 30
1 0 113 167 174 0 +174 .00599955163034436 -.0095 -4189464511754645e-32 -.0059995
5163034436 -.0095 0 -.00599955163034436 .00599955163034436 141 173 24 173 173 16
7 30 174 302 0 1 120 175 176 +0 -.0095 0 -1 0 698296267768627e-29 133 175 303 0
 23 174 177 0 +177 .00999962635868417 -.0075 -698270176534994e-31 -.009999626358
68417 -.0075 0 1.57079632679489 4.71238898038469 141 176 120 176 176 174 16 23 2
60 0 ?108 9 178 175 0 0 1 31 177 304 0 1 175 179 180 +0 -.0075 0 0 -1 0 0 0 -1 .
00999962635868417 133 179 305 0 181 177 182 0 +182 .01 -.004205307922833865 -698
296267768627e-31 .00999962635868417 -.0075 -698270176534994e-31 .004204173825278
25 .00749886592363117 141 180 175 180 180 177 16 181 15 0 ?183 184 118 179 0 0 1
 30 182 306 0 1 179 124 185 +.0100004767829567 -1134124590891224e-21 -6983295613
44547e-31 -.0001134070513048914 -.99999999356942 791917206648508e-33 133 124 307
 0 122 182 186 0 +186 -.00599955163034436 -.0095 2664336142974285e-33 -.00999962
635868416 -.0075 4440726168423915e-33 0 1 141 185 179 185 185 182 137 186 308 0
 1 124 135 187 +5 188 0 ?133 135 314 0 131 186 133 0 +133 -.01 -.004205307922833
865 0 -.00999962635868417 -.0075 0 .00420417382527825 .00749886592363117 141 187
 124 187 187 186 134 188 0 0 0 0 0 0 +189 190 136 189 1 2 2 2 5 FFF1 191 192 193
 135 190 1 0 45 4 191 0 3.1415926535898 1 3.1415926535898 127 2 192 2 2 128 2 19
3 0 1 16 131 167 0 ?125 194 123 135 0 0 1 16 194 164 0 ?129 195 131 196 0 0 1 17
 129 0 114 125 197 103 198 194 0 0 +16 195 161 0 ?197 199 194 200 0 0 1 30 196 2
04 0 194 201 200 0 +.0004205321699607225 -.002300099335845445 0 -.98369388312983
 -.1798508946126115 0 31 201 465 0 202 203 196 0 +.0135647015960109 .00698353230
704211 .01356470159601094 0 1 0 0 0 1 .0015 30 200 203 0 195 196 204 0 +0 -.0035
 0 -1 0 0 30 204 202 0 199 200 205 0 +-.0055 -1734723475976805e-33 0 31540426835
94195e-31 -1 0 16 199 158 0 ?206 207 195 204 0 0 1 30 205 201 0 207 204 208 0 +0
 .002 0 -1 0 0 16 207 127 0 ?209 210 199 205 0 0 1 30 208 200 0 210 205 211 0 +-
.000579700369712789 -.001541840116624715 0 .936027387366533 -.3519271659019545 0
 16 210 155 0 ?212 213 207 208 0 0 1 30 211 199 0 213 208 214 0 +-.0038519848813
47275 -.00454534215998979 0 .762895600573906 -.646521695401615 0 16 213 152 0 ?2
15 216 210 211 0 0 1 30 214 198 0 216 211 217 0 +-.0104741316785176 -.0048629897
0788318 0 .421111306454629 -.907008967748432 0 16 216 149 0 ?218 219 213 214 0 0
 1 30 217 197 0 219 214 220 0 +0 .00698353230704211 0 1 0 0 16 219 145 0 ?221 22
2 216 217 0 0 1 30 220 196 0 222 217 223 0 +-.0224898498656544 .0066380982057198
9 0 .2830860833003535 .959094504958539 0 16 222 142 0 ?224 119 219 220 0 0 1 30
 223 195 0 119 220 17 0 +-271648425661926e-33 .001983532307042115 0 -1 -13695185
336659e-29 0 16 119 139 0 ?225 113 222 223 0 0 1 134 17 10 0 1 223 226 227 +228
 229 30 226 20 0 184 17 230 0 +-.0004205321699607225 -.002300099335845445 293656
0447602145e-33 .98369388312983 -.1798508946126115 -686909767216388e-29 141 227 5
 227 227 17 136 228 2 11 3 6 5 FFF1 231 232 233 135 229 2 0 45 33 231 .005999551
63034436 -.0095 -418946451175465e-31 .00661396605099555 -.00950002295809842 -461
850780855859e-31 .00720055343449259 -.00940775932660933 -502811958917474e-31 .00
783449094822805 -.00930804804948347 -547079578901474e-31 .00837066915625013 -.00
911079463772736 -584520703053543e-31 .00901466001508749 -.00887387826898122 -629
490344373866e-31 .00942752153762116 -.00853074359866554 -65832031040292e-30 .009
68430444976027 -.0083173279251515 -67625136532027e-30 .00982887241044762 -.00807
811753332886 -68634649205896e-30 .00999961531347533 -.00779559658926905 -6982694
05252183e-31 .00999962635868416 -.0075 -698270176534993e-31 127 6 232 3 2 2 2 2
 3 128 6 233 0 .25 .5 .75 .875 1 16 184 19 0 ?234 235 181 226 0 0 1 30 230 24 0
 235 226 236 0 +0 -.0035 0 1 0 -698296267768627e-29 16 235 23 0 ?237 238 184 230
 0 0 1 30 236 28 0 238 230 239 0 +.0055 -1734723475976805e-33 -3840629472727445e
-32 -3154042683594195e-31 -1 220245623433677e-44 16 238 27 0 ?240 241 235 236 0
 0 1 30 239 32 0 241 236 242 0 +0 .002 0 1 0 -698296267768627e-29 16 241 31 0 ?2
43 244 238 239 0 0 1 30 242 36 0 244 239 245 0 +.000579700369712789 -.0015418401
16624715 -4048026045945335e-33 -.936027387366533 -.3519271659019545 653624431127
269e-29 16 244 35 0 ?246 247 241 242 0 0 1 30 245 40 0 247 242 248 0 +.003851984
881347275 -.00454534215998979 -268982666614598e-31 -.762895600573906 -.646521695
401615 532727150577864e-29 16 247 39 0 ?249 250 244 245 0 0 1 30 248 44 0 250 24
5 251 0 +.0104741316785176 -.00486298970788318 -731404705922599e-31 -.4211113064
54629 -.907008967748432 294060453612438e-29 16 250 43 0 ?252 253 247 248 0 0 1 3
0 251 48 0 253 248 254 0 +0 .00698353230704211 0 -1 0 698296267768627e-29 16 253
 47 0 ?255 256 250 251 0 0 1 30 254 53 0 256 251 257 0 +.0224898498656544 .00663
809820571989 -157045782238632e-30 -.2830860833003535 .959094504958539 1976779554
258755e-30 16 256 52 0 ?36 258 253 254 0 0 1 30 257 57 0 258 254 259 0 +27164842
5661926e-33 .001983532307042115 -189691081784946e-47 1 -13695185336659e-29 -6982
96267768627e-29 16 258 56 0 ?28 260 256 257 0 0 1 31 259 61 0 260 257 261 0 +0 0
 0 -698296267768627e-29 0 -1 -1 0 698296267768627e-29 .0145 16 260 60 0 ?76 31 2
58 259 0 0 1 31 261 280 0 31 259 262 0 +0 .001983532307042115 0 0 -1 0 0 0 -1 .0
1436369031923622 16 31 227 0 ?30 39 260 261 0 0 1 31 262 281 0 39 261 263 0 +0 .
00198353230704211 0 0 -1 0 0 0 -1 .0238636903192362 16 39 230 0 ?38 264 31 262 0
 0 1 31 263 282 0 264 262 265 0 +0 .00698353230704212 0 0 -1 0 0 0 -1 .022387891
62663195 16 264 233 0 ?81 266 39 263 0 0 1 31 265 283 0 266 263 267 0 +0 .006983
53230704212 0 0 -1 0 0 0 -1 .01597430261401865 16 266 236 0 ?84 268 264 265 0 0
 1 31 267 284 0 268 265 269 0 +0 .00491321714357226 0 0 -1 0 0 0 -1 .01501308485
95505 16 268 239 0 ?87 270 266 267 0 0 1 31 269 285 0 270 267 271 0 +0 .00306472
146190274 0 0 -1 0 0 0 -1 .01283185995518046 16 270 242 0 ?90 272 268 269 0 0 1
 31 271 286 0 272 269 273 0 +0 .002 0 0 -1 0 0 0 -1 .01 16 272 245 0 ?93 274 270
 271 0 0 1 31 273 287 0 274 271 275 0 +0 .002 0 0 -1 0 0 0 -1 .0055 16 274 248 0
 ?96 276 272 273 0 0 1 31 275 288 0 276 273 277 0 +0 -.0035 0 0 -1 0 0 0 -1 .005
5 16 276 251 0 ?99 278 274 275 0 0 1 31 277 289 0 278 275 158 0 +0 -.0035 0 0 -1
 0 0 0 -1 .00614232061003034 16 278 254 0 ?102 178 276 277 0 0 1 31 158 290 0 17
8 277 155 0 +0 -.004205307922833865 0 0 -1 0 0 0 -1 .01 16 178 257 0 ?105 23 278
 158 0 0 1 17 105 0 279 198 234 103 67 178 0 130 +15 279 255 0 64 280 0 17 198 0
 279 64 105 100 129 194 0 197 -17 234 0 279 105 64 65 281 184 0 0 +17 67 0 282 1
83 130 65 105 178 0 283 -17 130 0 282 67 108 103 125 131 0 129 -15 282 258 0 67
 284 0 17 108 0 282 130 183 106 70 23 0 122 +17 183 0 282 108 67 68 283 181 0 0
 +17 70 0 121 117 122 68 108 23 0 115 -17 115 0 114 283 112 68 117 118 155 183 +
17 283 0 114 281 115 65 183 181 0 234 -16 118 9 0 2373641347396565e-21 115 181 1
13 0 0 0 1 17 281 0 114 285 283 62 234 184 0 237 -17 285 0 114 286 281 59 237 23
5 0 240 -17 237 0 287 102 61 62 285 235 0 0 +15 287 252 0 61 288 0 17 102 0 287
 289 237 100 64 278 0 198 +17 61 0 287 237 289 59 99 276 0 285 -17 289 0 287 61
 102 97 197 195 0 206 -17 99 0 290 291 240 97 61 276 0 289 +15 290 249 0 58 292
 0 17 291 0 290 58 99 94 206 199 0 293 -17 240 0 290 99 58 59 286 238 0 0 +17 58
 0 290 240 291 56 96 274 0 286 -17 286 0 114 243 285 56 240 238 0 294 -17 243 0
 114 295 286 53 294 241 0 246 +17 294 0 296 96 55 56 243 241 0 0 -15 296 246 0 5
5 297 0 17 96 0 296 209 294 94 58 274 0 291 +17 55 0 296 294 209 53 93 272 0 243
 -17 209 0 296 55 96 91 293 207 0 212 +17 93 0 298 299 246 91 55 272 0 209 +15 2
98 243 0 52 300 0 17 299 0 298 52 93 88 212 210 0 215 -17 246 0 298 93 52 53 295
 244 0 0 +17 52 0 298 246 299 50 90 270 0 295 -17 295 0 114 301 243 50 246 244 0
 249 -17 301 0 114 302 295 47 249 247 0 252 -17 249 0 303 90 49 50 301 247 0 0 +
15 303 240 0 49 304 0 17 90 0 303 305 249 88 52 270 0 299 +17 49 0 303 249 305 4
7 87 268 0 301 -17 305 0 303 49 90 85 215 213 0 218 -17 87 0 306 307 252 85 49 2
68 0 305 +15 306 237 0 46 308 0 17 307 0 306 46 87 82 218 216 0 221 -17 252 0 30
6 87 46 47 302 250 0 0 +17 46 0 306 252 307 42 84 266 0 302 -17 302 0 114 309 30
1 42 252 250 0 255 -17 309 0 114 40 302 34 255 253 0 36 -17 255 0 310 84 41 42 3
09 253 0 0 +15 310 234 0 41 311 0 17 84 0 310 312 255 82 46 266 0 307 +17 41 0 3
10 255 312 34 81 264 0 309 -17 312 0 310 41 84 79 221 219 0 224 -17 81 0 35 37 3
6 79 41 264 0 312 +15 35 231 0 33 313 0 17 37 0 35 33 81 77 224 222 0 225 -17 36
 0 35 81 33 34 40 256 0 0 +17 40 0 114 32 309 26 36 256 0 28 -17 32 0 114 76 40
 10 28 258 0 314 -17 28 0 27 38 25 26 32 258 0 0 +15 27 228 0 25 315 0 17 38 0 2
7 29 28 77 33 39 0 37 +17 29 0 27 25 38 74 225 119 0 0 -17 225 0 114 224 76 77 2
9 119 0 0 +17 224 0 114 221 225 79 37 222 0 0 +17 76 0 114 225 32 74 314 260 0 3
0 +17 314 0 316 30 30 10 76 260 0 0 -17 30 0 316 314 314 74 25 31 0 29 +15 316 2
25 0 30 150 0 14 150 226 317 ?128 315 316 4 152 -0 0 128 315 21 81 255 1 317 123
1 318 150 319 0 148 320 321 14 315 229 320 ?150 313 322 4 323 +0 0 150 313 21 53
 255 152 267 0 150 141 323 0 -0 0 0 .0145 0 -1 0 1 0 -698296267768627e-29 13 21
 119 0 0 0 0 0 0 8 12 14 12 265 324 ?14 0 111 4 141 +0 0 14 0 21 81 1 324 1233 3
18 12 325 0 320 326 327 14 14 262 326 ?284 12 121 4 5 -0 0 284 12 21 81 1 326 12
34 318 14 328 0 324 329 330 14 284 259 329 ?280 14 282 4 15 +0 0 280 14 21 81 1
 329 1235 318 284 331 0 326 332 333 14 280 256 332 ?288 284 279 4 334 +0 0 288 2
84 21 52 255 15 278 0 284 334 5 0 -0 -.004205307922833865 0 0 1 0 .01 .000113407
0513048914 .99999999356942 0 0 1 52 334 277 0 280 335 15 0 -0 -.0035 0 0 -1 0 .0
0614232061003034 .98369388312983 .1798508946126115 0 0 -1 50 335 276 0 288 336 3
34 0 +0 -.0035 0 0 -1 0 0 0 -1 14 288 253 337 ?292 280 287 4 335 +0 0 292 280 21
 51 336 275 0 292 338 335 0 -0 -.0095 0 0 -1 0 .0055 0 0 -1 14 292 250 339 ?297
 288 290 4 336 +0 0 297 288 21 50 338 274 0 297 340 336 0 +0 .002 0 0 -1 0 0 0 -
1 14 297 247 341 ?300 292 296 4 338 -0 0 300 292 21 52 340 273 0 300 342 338 0 -
0 .00306472146190274 0 0 1 0 .01283185995518046 .936027387366533 .35192716590195
5 0 0 1 14 300 244 343 ?304 297 298 4 340 +0 0 304 297 21 52 342 272 0 304 344 3
40 0 -0 .00491321714357226 0 0 1 0 .0150130848595505 .762895600573906 .646521695
401615 0 0 1 14 304 241 345 ?308 300 303 4 342 +0 0 308 300 21 52 344 271 0 308
 346 342 0 -0 .00698353230704212 0 0 1 0 .01597430261401865 .4211113064546285 .9
07008967748432 0 0 1 14 308 238 347 ?311 304 306 4 344 +0 0 311 304 21 50 346 27
0 0 311 348 344 0 +0 .00698353230704211 0 0 1 0 0 0 1 14 311 235 349 ?313 308 35
0 4 346 +0 0 313 308 21 52 348 269 0 313 323 346 0 +0 .00198353230704211 0 0 -1
 0 .0238636903192362 .2830860833003535 .959094504958539 0 0 -1 14 313 232 351 ?3
15 311 35 4 348 +0 0 315 311 21 50 323 268 0 315 152 348 0 +271648425661926e-33
 .00198353230704211 -189691081784946e-47 0 -1 0 0 0 -1 81 1 351 1244 318 313 352
 0 349 353 354 80 255 1 318 355 356 9000 1 1 1 1 1 1 1 1 0 FFFFTFTFFFFFFF1 81 1
 352 1186 357 313 0 351 358 359 360 81 1 349 1243 318 311 358 0 347 351 361 81 1
 353 1245 318 362 363 0 351 364 365 82 255 1 354 632291464 14 362 502 353 ?0 149
 366 4 151 +0 0 0 149 21 81 1 363 1191 357 362 0 353 367 0 368 81 1 364 1246 318
 149 367 0 353 0 369 82 1 365 -1740111730 14 149 449 364 ?362 128 370 4 140 -0 0
 362 128 21 81 1 367 1190 357 149 0 364 371 363 372 82 1 369 -1921908596 80 1 35
7 0 373 8001 0 0 0 0 3 5 0 0 0 FFFFTFTFFFFFFF2 81 1 371 1189 357 128 0 148 319 3
67 374 83 255 3 372 .250980392156863 .250980392156863 .250980392156863 81 1 148
 1230 318 128 371 0 0 317 375 81 1 319 1188 357 150 0 317 359 371 376 83 3 374 .
250980392156863 .250980392156863 .250980392156863 81 1 359 1187 357 315 0 320 35
2 319 377 83 3 376 .250980392156863 .250980392156863 .250980392156863 81 1 320 1
232 318 315 359 0 317 324 378 83 3 377 .250980392156863 .250980392156863 .250980
392156863 82 1 378 631963790 82 1 375 613351560 79 255 15 373 SDL/TYSA_COLOUR15
 370 452 0 379 149 380 17 379 0 370 379 379 0 381 132 0 0 +15 380 453 0 382 149
 0 17 382 0 380 382 382 0 383 202 0 0 +17 383 0 384 383 383 0 382 202 0 0 -16 20
2 441 0 ?382 132 18 201 0 0 1 16 132 440 0 ?379 123 202 19 0 0 1 16 18 490 0 ?38
5 202 386 6 0 0 1 17 385 0 322 385 385 0 387 18 0 0 +16 386 491 0 ?388 18 0 203
 0 0 1 17 388 0 350 388 388 0 389 386 0 0 +31 203 518 0 386 0 201 0 +-.013564701
5960109 .00698353230704211 .01356470159601094 0 -1 0 0 0 1 .0015 15 350 483 0 38
8 311 384 17 389 0 390 389 389 0 388 386 0 0 -15 390 506 0 389 362 0 15 384 431
 0 383 311 310 15 322 477 0 385 315 391 17 387 0 366 387 387 0 385 18 0 0 -15 36
6 505 0 387 362 390 15 391 425 0 381 315 27 17 381 0 391 381 381 0 379 132 0 0 -
83 3 368 .250980392156863 .250980392156863 .250980392156863 51 151 515 0 362 0 1
40 0 --.0135647015960109 -.00301646769295789 .01356470159601094 0 1 0 .0015 0 0
 1 81 1 358 1185 357 311 0 349 392 352 393 81 1 347 1242 318 308 392 0 345 349 3
94 82 1 361 632619150 81 1 392 1184 357 308 0 347 395 358 396 81 1 345 1241 318
 304 395 0 343 347 397 82 1 394 632946824 81 1 395 1183 357 304 0 345 398 392 39
9 81 1 343 1240 318 300 398 0 341 345 400 82 1 397 633274504 81 1 398 1182 357 3
00 0 343 401 395 402 81 1 341 1239 318 297 401 0 339 343 403 82 1 400 633602184
 81 1 401 1181 357 297 0 341 404 398 405 81 1 339 1238 318 292 404 0 337 341 406
 82 1 403 633929864 81 1 404 1180 357 292 0 339 407 401 408 81 1 337 1237 318 28
8 407 0 332 339 409 82 1 406 634257544 81 1 407 1179 357 288 0 337 410 404 411 8
1 1 332 1236 318 280 410 0 329 337 412 82 1 409 634585224 81 1 410 1178 357 280
 0 332 331 407 413 82 1 412 634912904 81 1 331 1177 357 284 0 329 328 410 414 83
 3 413 .250980392156863 .250980392156863 .250980392156863 81 1 328 1176 357 14 0
 326 325 331 415 83 3 414 .250980392156863 .250980392156863 .250980392156863 81
 1 325 1175 357 12 0 324 0 328 416 83 3 415 .250980392156863 .250980392156863 .2
50980392156863 83 3 416 .250980392156863 .250980392156863 .250980392156863 83 3
 411 .250980392156863 .250980392156863 .250980392156863 83 3 408 .25098039215686
3 .250980392156863 .250980392156863 83 3 405 .250980392156863 .250980392156863 .
250980392156863 83 3 402 .250980392156863 .250980392156863 .250980392156863 83 3
 399 .250980392156863 .250980392156863 .250980392156863 83 3 396 .25098039215686
3 .250980392156863 .250980392156863 83 3 393 .250980392156863 .250980392156863 .
250980392156863 83 3 360 .250980392156863 .250980392156863 .250980392156863 79 1
4 356 SWEntUnchanged82 1 333 635240584 82 1 330 635568264 82 1 327 635895944 82
 1 321 631636104 17 221 0 114 218 224 82 312 219 0 0 +17 218 0 114 215 221 85 30
7 216 0 0 +17 215 0 114 212 218 88 305 213 0 0 +17 212 0 114 293 215 91 299 210
 0 0 +17 293 0 114 206 212 94 209 207 0 0 -17 206 0 114 197 293 97 291 199 0 0 +
17 197 0 114 129 206 100 289 195 0 0 +17 64 0 279 234 198 62 102 278 0 281 -141
 136 135 136 136 133 19 13 115 0 1 0 8 4 S0 141 16 159 417 417 5 141 417 186 16
 16 5 74 4 CI16 index_map_offset0 0 1 dCCZ20 11 2 0 0 364 363 0 0 0 0 0 0 0 0 0
 0 0 0 0 0 0 0 0 0 1 0 
